<svg id="svg" version="1.1" xmlns="http://www.w3.org/2000/svg" xmlns:xlink="http://www.w3.org/1999/xlink" width="400" height="225" viewBox="0, 0, 400,225"><g id="svgg"><path id="path0" d="M113.731 23.016 C 113.762 23.171,113.661 23.272,113.506 23.241 C 113.351 23.210,113.225 23.337,113.225 23.523 C 113.225 23.708,113.123 23.860,112.999 23.860 C 112.876 23.860,112.774 24.247,112.774 24.718 C 112.774 25.291,112.610 25.753,112.279 26.108 C 111.914 26.500,111.800 26.866,111.846 27.501 C 111.885 28.035,111.810 28.362,111.650 28.362 C 111.238 28.362,110.748 28.964,110.748 29.472 C 110.748 29.728,110.647 29.938,110.523 29.938 C 110.400 29.938,110.298 30.141,110.298 30.388 C 110.298 30.636,110.203 30.838,110.087 30.838 C 109.971 30.838,109.845 31.168,109.806 31.570 C 109.764 32.008,109.623 32.279,109.454 32.245 C 109.299 32.214,109.173 32.371,109.173 32.594 C 109.173 33.097,108.670 34.211,108.441 34.213 C 108.348 34.214,108.272 34.468,108.272 34.778 C 108.272 35.087,108.171 35.340,108.047 35.340 C 107.923 35.340,107.822 35.599,107.822 35.914 C 107.822 36.237,107.576 36.716,107.259 37.009 C 106.950 37.296,106.697 37.696,106.697 37.899 C 106.697 38.101,106.595 38.267,106.472 38.267 C 106.348 38.267,106.246 38.463,106.246 38.704 C 106.246 38.944,106.145 39.203,106.021 39.280 C 105.898 39.356,105.796 39.717,105.796 40.081 C 105.796 40.445,105.695 40.743,105.571 40.743 C 105.447 40.743,105.346 40.996,105.346 41.306 C 105.346 41.656,105.219 41.868,105.008 41.868 C 104.823 41.868,104.671 42.065,104.671 42.305 C 104.671 42.546,104.569 42.805,104.446 42.881 C 104.322 42.958,104.221 43.318,104.221 43.682 C 104.221 44.046,104.119 44.344,103.995 44.344 C 103.872 44.344,103.770 44.525,103.770 44.745 C 103.770 44.965,103.568 45.291,103.320 45.470 C 103.073 45.648,102.870 46.025,102.870 46.307 C 102.870 46.613,102.734 46.820,102.532 46.820 C 102.295 46.820,102.195 47.060,102.195 47.622 C 102.195 48.098,102.104 48.366,101.970 48.284 C 101.842 48.205,101.745 48.394,101.745 48.721 C 101.745 49.037,101.643 49.297,101.519 49.297 C 101.396 49.297,101.294 49.493,101.294 49.733 C 101.294 49.974,101.193 50.233,101.069 50.310 C 100.945 50.386,100.844 50.645,100.844 50.886 C 100.844 51.131,100.690 51.322,100.493 51.322 C 100.300 51.322,100.200 51.416,100.270 51.529 C 100.341 51.643,100.245 51.889,100.058 52.076 C 99.871 52.263,99.719 52.727,99.719 53.107 C 99.719 53.487,99.617 53.799,99.494 53.799 C 99.370 53.799,99.268 54.001,99.268 54.249 C 99.268 54.496,99.167 54.699,99.043 54.699 C 98.920 54.699,98.818 54.851,98.818 55.037 C 98.818 55.222,98.666 55.374,98.481 55.374 C 98.295 55.374,98.143 55.571,98.143 55.811 C 98.143 56.051,98.042 56.311,97.918 56.387 C 97.794 56.464,97.693 56.824,97.693 57.188 C 97.693 57.552,97.591 57.850,97.468 57.850 C 97.344 57.850,97.243 58.047,97.243 58.287 C 97.243 58.528,97.141 58.787,97.017 58.863 C 96.894 58.940,96.792 59.257,96.792 59.568 C 96.792 60.122,96.339 60.777,95.956 60.777 C 95.850 60.777,95.738 61.096,95.708 61.487 C 95.679 61.878,95.455 62.371,95.210 62.583 C 94.966 62.795,94.766 63.133,94.766 63.335 C 94.766 63.537,94.665 63.703,94.541 63.703 C 94.418 63.703,94.316 64.061,94.316 64.498 C 94.316 64.969,94.189 65.342,94.003 65.413 C 93.822 65.482,93.739 65.716,93.806 65.972 C 93.896 66.316,93.836 66.378,93.530 66.261 C 93.210 66.138,93.167 66.199,93.293 66.596 C 93.400 66.933,93.339 67.123,93.094 67.217 C 92.899 67.292,92.741 67.595,92.741 67.891 C 92.741 68.188,92.639 68.430,92.515 68.430 C 92.392 68.430,92.290 68.734,92.290 69.105 C 92.290 69.477,92.189 69.781,92.065 69.781 C 91.941 69.781,91.840 70.034,91.840 70.343 C 91.840 70.673,91.724 70.883,91.559 70.850 C 91.389 70.816,91.299 70.994,91.331 71.300 C 91.365 71.622,91.263 71.806,91.050 71.806 C 90.865 71.806,90.715 72.008,90.715 72.257 C 90.715 72.504,90.613 72.707,90.490 72.707 C 90.366 72.707,90.264 72.960,90.264 73.270 C 90.264 73.579,90.163 73.832,90.039 73.832 C 89.916 73.832,89.814 74.024,89.814 74.258 C 89.814 74.493,89.662 74.743,89.477 74.814 C 89.287 74.887,89.139 75.222,89.139 75.576 C 89.139 75.951,88.955 76.341,88.689 76.533 C 88.441 76.712,88.239 77.083,88.239 77.358 C 88.239 77.633,88.137 77.920,88.014 77.997 C 87.890 78.073,87.785 78.459,87.781 78.854 C 87.774 79.615,87.347 80.360,86.919 80.360 C 86.778 80.360,86.663 80.664,86.663 81.035 C 86.663 81.407,86.562 81.711,86.438 81.711 C 86.314 81.711,86.213 81.863,86.213 82.048 C 86.213 82.234,86.111 82.386,85.988 82.386 C 85.864 82.386,85.763 82.589,85.763 82.836 C 85.763 83.084,85.661 83.286,85.537 83.286 C 85.414 83.286,85.312 83.489,85.312 83.737 C 85.312 83.984,85.211 84.187,85.087 84.187 C 84.963 84.187,84.862 84.545,84.862 84.982 C 84.862 85.479,84.736 85.825,84.526 85.906 C 84.341 85.977,84.240 86.117,84.303 86.218 C 84.365 86.319,84.263 86.554,84.076 86.741 C 83.890 86.928,83.737 87.335,83.737 87.646 C 83.737 87.958,83.635 88.275,83.512 88.351 C 83.388 88.428,83.286 88.687,83.286 88.927 C 83.286 89.167,83.185 89.364,83.061 89.364 C 82.938 89.364,82.836 89.567,82.836 89.814 C 82.836 90.062,82.735 90.264,82.611 90.264 C 82.487 90.264,82.386 90.518,82.386 90.827 C 82.386 91.177,82.258 91.390,82.048 91.390 C 81.861 91.390,81.711 91.590,81.711 91.840 C 81.711 92.088,81.609 92.290,81.486 92.290 C 81.362 92.290,81.261 92.487,81.261 92.727 C 81.261 92.968,81.159 93.227,81.035 93.303 C 80.912 93.380,80.810 93.639,80.810 93.879 C 80.810 94.120,80.709 94.316,80.585 94.316 C 80.461 94.316,80.360 94.627,80.360 95.008 C 80.360 95.388,80.234 95.840,80.079 96.013 C 79.360 96.814,79.235 97.029,79.235 97.458 C 79.235 97.711,79.133 97.918,79.010 97.918 C 78.886 97.918,78.784 98.120,78.784 98.368 C 78.784 98.616,78.683 98.818,78.559 98.818 C 78.436 98.818,78.334 99.173,78.334 99.606 C 78.334 100.170,78.234 100.394,77.983 100.394 C 77.790 100.394,77.695 100.495,77.772 100.619 C 77.848 100.743,77.811 100.844,77.689 100.844 C 77.382 100.844,76.759 102.150,76.759 102.792 C 76.759 103.083,76.657 103.320,76.533 103.320 C 76.410 103.320,76.308 103.517,76.308 103.757 C 76.308 103.997,76.207 104.257,76.083 104.333 C 75.959 104.410,75.858 104.669,75.858 104.909 C 75.858 105.160,75.704 105.346,75.496 105.346 C 75.276 105.346,75.183 105.471,75.258 105.667 C 75.326 105.844,75.235 106.110,75.057 106.258 C 74.879 106.406,74.733 106.717,74.733 106.949 C 74.733 107.182,74.631 107.372,74.508 107.372 C 74.384 107.372,74.282 107.575,74.282 107.822 C 74.282 108.070,74.181 108.272,74.057 108.272 C 73.934 108.272,73.832 108.627,73.832 109.060 C 73.832 109.624,73.732 109.848,73.481 109.848 C 73.288 109.848,73.186 109.939,73.255 110.050 C 73.323 110.160,73.228 110.309,73.043 110.380 C 72.858 110.451,72.707 110.745,72.707 111.034 C 72.707 111.633,72.228 112.770,71.975 112.773 C 71.882 112.774,71.806 113.085,71.806 113.466 C 71.806 114.155,71.379 114.800,70.922 114.800 C 70.789 114.800,70.681 115.059,70.681 115.376 C 70.681 115.703,70.583 115.892,70.456 115.813 C 70.328 115.734,70.231 115.923,70.231 116.250 C 70.231 116.567,70.129 116.826,70.006 116.826 C 69.882 116.826,69.781 117.181,69.781 117.614 C 69.781 118.047,69.679 118.402,69.555 118.402 C 69.432 118.402,69.330 118.604,69.330 118.852 C 69.330 119.100,69.231 119.302,69.110 119.302 C 68.988 119.302,68.825 119.555,68.748 119.863 C 68.670 120.172,68.517 120.369,68.406 120.300 C 68.295 120.232,68.205 120.435,68.205 120.752 C 68.205 121.069,68.104 121.328,67.980 121.328 C 67.856 121.328,67.755 121.660,67.755 122.066 C 67.755 122.546,67.597 122.918,67.304 123.129 C 67.009 123.342,66.854 123.712,66.854 124.205 C 66.854 124.633,66.760 124.898,66.636 124.821 C 66.516 124.747,66.353 124.944,66.274 125.258 C 66.195 125.573,66.040 125.830,65.929 125.830 C 65.819 125.830,65.729 126.033,65.729 126.280 C 65.729 126.528,65.627 126.730,65.504 126.730 C 65.380 126.730,65.279 127.042,65.279 127.422 C 65.279 128.103,64.852 128.756,64.408 128.756 C 64.275 128.756,64.234 129.080,64.309 129.544 C 64.412 130.175,64.364 130.332,64.070 130.332 C 63.811 130.332,63.703 130.534,63.703 131.017 C 63.703 131.393,63.500 131.919,63.253 132.185 C 63.005 132.450,62.802 132.902,62.802 133.188 C 62.802 133.474,62.701 133.708,62.577 133.708 C 62.454 133.708,62.352 133.860,62.352 134.046 C 62.352 134.232,62.258 134.384,62.144 134.384 C 61.903 134.384,61.227 135.655,61.227 136.107 C 61.227 136.273,61.125 136.410,61.002 136.410 C 60.878 136.410,60.777 136.764,60.777 137.198 C 60.777 137.631,60.675 137.985,60.551 137.985 C 60.428 137.985,60.326 138.188,60.326 138.436 C 60.326 138.686,60.176 138.886,59.989 138.886 C 59.803 138.886,59.663 138.962,59.678 139.055 C 59.769 139.631,59.593 140.214,59.201 140.635 C 58.953 140.900,58.751 141.369,58.751 141.677 C 58.751 141.984,58.649 142.298,58.526 142.375 C 58.402 142.451,58.301 142.711,58.301 142.951 C 58.301 143.191,58.199 143.388,58.075 143.388 C 57.952 143.388,57.850 143.590,57.850 143.838 C 57.850 144.086,57.720 144.288,57.561 144.288 C 57.401 144.288,57.254 144.515,57.233 144.791 C 57.212 145.068,57.089 145.330,56.960 145.373 C 56.831 145.416,56.725 145.645,56.725 145.883 C 56.725 146.120,56.624 146.314,56.500 146.314 C 56.376 146.314,56.275 146.669,56.275 147.102 C 56.275 147.535,56.173 147.890,56.050 147.890 C 55.926 147.890,55.824 148.092,55.824 148.340 C 55.824 148.588,55.687 148.790,55.518 148.790 C 55.313 148.790,55.247 148.975,55.319 149.353 C 55.398 149.765,55.330 149.916,55.063 149.916 C 54.849 149.916,54.699 150.101,54.699 150.366 C 54.699 150.613,54.598 150.816,54.474 150.816 C 54.350 150.816,54.249 151.148,54.249 151.554 C 54.249 152.034,54.091 152.406,53.799 152.617 C 53.506 152.828,53.348 153.199,53.348 153.679 C 53.348 154.085,53.254 154.418,53.140 154.418 C 52.900 154.418,52.223 155.689,52.223 156.140 C 52.223 156.307,52.122 156.443,51.998 156.443 C 51.874 156.443,51.773 156.646,51.773 156.894 C 51.773 157.141,51.671 157.344,51.548 157.344 C 51.424 157.344,51.322 157.536,51.322 157.770 C 51.322 158.004,51.185 158.249,51.017 158.313 C 50.849 158.378,50.651 158.731,50.578 159.098 C 50.504 159.465,50.287 159.923,50.095 160.114 C 49.904 160.306,49.747 160.774,49.747 161.154 C 49.747 161.535,49.645 161.846,49.522 161.846 C 49.398 161.846,49.297 162.042,49.297 162.283 C 49.297 162.523,49.195 162.782,49.071 162.859 C 48.948 162.935,48.846 163.285,48.846 163.636 C 48.846 163.995,48.699 164.330,48.509 164.403 C 48.323 164.475,48.171 164.745,48.171 165.003 C 48.171 165.262,48.070 165.411,47.946 165.335 C 47.820 165.257,47.721 165.428,47.721 165.722 C 47.721 166.012,47.518 166.394,47.271 166.573 C 46.978 166.784,46.820 167.156,46.820 167.636 C 46.820 168.156,46.716 168.374,46.468 168.374 C 46.225 168.374,46.157 168.506,46.249 168.797 C 46.334 169.065,46.257 169.269,46.039 169.353 C 45.850 169.426,45.695 169.691,45.695 169.942 C 45.695 170.194,45.594 170.400,45.470 170.400 C 45.346 170.400,45.245 170.596,45.245 170.836 C 45.245 171.077,45.144 171.336,45.020 171.412 C 44.896 171.489,44.795 171.850,44.795 172.214 C 44.795 172.578,44.693 172.876,44.569 172.876 C 44.446 172.876,44.344 173.067,44.344 173.302 C 44.344 173.536,44.192 173.786,44.007 173.857 C 43.821 173.929,43.669 174.248,43.669 174.566 C 43.669 174.885,43.467 175.363,43.219 175.629 C 42.971 175.894,42.769 176.397,42.769 176.745 C 42.769 177.093,42.667 177.378,42.544 177.378 C 42.420 177.378,42.319 177.580,42.319 177.828 C 42.319 178.075,42.219 178.278,42.098 178.278 C 41.976 178.278,41.813 178.531,41.736 178.841 C 41.658 179.150,41.498 179.403,41.380 179.403 C 41.263 179.403,41.224 179.497,41.294 179.610 C 41.365 179.724,41.269 179.970,41.083 180.157 C 40.896 180.344,40.743 180.707,40.743 180.963 C 40.743 181.220,40.642 181.429,40.518 181.429 C 40.394 181.429,40.293 181.733,40.293 182.105 C 40.293 182.476,40.191 182.780,40.068 182.780 C 39.944 182.780,39.842 183.117,39.842 183.530 C 39.842 184.099,39.707 184.352,39.280 184.581 C 38.927 184.770,38.717 185.077,38.717 185.407 C 38.717 185.695,38.616 185.931,38.492 185.931 C 38.368 185.931,38.267 186.128,38.267 186.368 C 38.267 186.609,38.165 186.868,38.042 186.944 C 37.918 187.021,37.817 187.381,37.817 187.745 C 37.817 188.164,37.700 188.407,37.500 188.407 C 37.294 188.407,37.225 188.565,37.301 188.858 C 37.383 189.171,37.308 189.308,37.055 189.308 C 36.855 189.308,36.691 189.490,36.691 189.713 C 36.691 190.216,36.188 191.330,35.959 191.332 C 35.867 191.333,35.791 191.642,35.791 192.019 C 35.791 192.441,35.585 192.911,35.256 193.240 C 34.877 193.619,34.753 193.944,34.832 194.355 C 34.914 194.785,34.849 194.935,34.579 194.935 C 34.365 194.935,34.215 195.121,34.215 195.385 C 34.215 195.633,34.114 195.836,33.990 195.836 C 33.866 195.836,33.765 196.032,33.765 196.273 C 33.765 196.513,33.663 196.772,33.540 196.849 C 33.416 196.925,33.315 197.174,33.315 197.401 C 33.315 197.628,33.163 197.872,32.977 197.943 C 32.780 198.019,32.639 198.356,32.639 198.755 C 32.639 199.130,32.531 199.437,32.399 199.437 C 32.016 199.437,32.262 200.664,32.660 200.739 C 33.110 200.825,34.665 199.252,34.665 198.712 C 34.665 198.492,34.823 198.312,35.016 198.312 C 35.209 198.312,35.304 198.210,35.228 198.087 C 35.151 197.963,35.247 197.862,35.440 197.862 C 35.643 197.862,35.791 197.668,35.791 197.401 C 35.791 196.807,36.762 195.836,37.356 195.836 C 37.721 195.836,37.817 195.691,37.817 195.138 C 37.817 194.653,38.023 194.248,38.492 193.810 C 38.863 193.463,39.167 192.983,39.167 192.745 C 39.167 192.506,39.420 192.175,39.730 192.009 C 40.039 191.843,40.293 191.548,40.294 191.352 C 40.294 191.156,40.598 190.672,40.969 190.277 C 41.340 189.881,41.643 189.446,41.643 189.310 C 41.643 189.174,41.896 188.790,42.206 188.456 C 42.515 188.122,42.769 187.768,42.769 187.668 C 42.769 187.403,43.833 186.382,44.109 186.382 C 44.239 186.382,44.344 186.169,44.344 185.909 C 44.344 185.649,44.648 185.153,45.020 184.806 C 45.391 184.459,45.695 184.006,45.695 183.799 C 45.695 183.430,46.198 182.780,46.483 182.780 C 46.781 182.780,47.271 182.122,47.271 181.720 C 47.271 181.491,47.473 181.158,47.721 180.979 C 47.968 180.801,48.171 180.474,48.171 180.254 C 48.171 180.034,48.280 179.854,48.412 179.854 C 48.736 179.854,49.114 179.432,49.520 178.616 C 49.705 178.244,50.034 177.777,50.252 177.576 C 50.469 177.376,50.647 177.092,50.647 176.944 C 50.647 176.796,50.741 176.734,50.856 176.805 C 50.971 176.876,51.137 176.705,51.226 176.424 C 51.314 176.144,51.575 175.751,51.805 175.550 C 52.035 175.350,52.223 174.970,52.223 174.706 C 52.223 174.341,52.361 174.226,52.799 174.226 C 53.116 174.226,53.317 174.133,53.247 174.019 C 53.177 173.905,53.272 173.659,53.459 173.473 C 53.646 173.286,53.799 172.917,53.799 172.653 C 53.799 172.390,53.900 172.236,54.024 172.313 C 54.147 172.389,54.249 172.331,54.249 172.184 C 54.249 172.036,54.439 171.750,54.672 171.548 C 54.905 171.346,55.139 170.980,55.192 170.734 C 55.245 170.488,55.417 170.315,55.573 170.349 C 55.730 170.383,55.793 170.306,55.714 170.178 C 55.635 170.051,55.729 169.885,55.923 169.811 C 56.116 169.737,56.275 169.484,56.275 169.250 C 56.275 169.016,56.359 168.824,56.462 168.824 C 56.565 168.824,56.782 168.575,56.944 168.272 C 57.107 167.968,57.352 167.740,57.489 167.765 C 57.626 167.791,57.706 167.584,57.667 167.304 C 57.629 167.026,57.709 166.798,57.847 166.798 C 58.193 166.798,59.185 165.635,59.194 165.219 C 59.198 165.032,59.454 164.689,59.764 164.456 C 60.073 164.224,60.326 163.839,60.326 163.602 C 60.326 163.364,60.428 163.232,60.551 163.309 C 60.675 163.385,60.777 163.336,60.777 163.199 C 60.777 162.884,61.804 161.846,62.117 161.846 C 62.246 161.846,62.352 161.615,62.352 161.333 C 62.352 161.051,62.555 160.674,62.802 160.495 C 63.050 160.317,63.253 159.991,63.253 159.772 C 63.253 159.553,63.455 159.247,63.703 159.092 C 63.950 158.938,64.153 158.589,64.153 158.318 C 64.153 157.978,64.310 157.803,64.660 157.753 C 64.986 157.707,65.192 157.500,65.238 157.172 C 65.278 156.891,65.405 156.720,65.520 156.791 C 65.635 156.862,65.729 156.704,65.729 156.441 C 65.729 155.979,66.201 155.318,66.532 155.318 C 66.797 155.318,67.290 154.557,67.297 154.136 C 67.301 153.920,67.406 153.742,67.530 153.742 C 67.653 153.742,67.758 153.565,67.762 153.348 C 67.769 152.967,68.716 151.716,68.998 151.716 C 69.231 151.716,69.781 151.089,69.781 150.823 C 69.781 150.685,69.983 150.355,70.231 150.089 C 70.478 149.823,70.681 149.422,70.681 149.198 C 70.681 148.974,70.839 148.790,71.032 148.790 C 71.225 148.790,71.320 148.689,71.244 148.565 C 71.167 148.441,71.226 148.340,71.374 148.340 C 71.732 148.340,72.240 147.653,72.249 147.158 C 72.254 146.917,72.431 146.764,72.707 146.764 C 72.998 146.764,73.157 146.614,73.157 146.338 C 73.157 146.104,73.309 145.854,73.495 145.782 C 73.680 145.711,73.832 145.488,73.832 145.286 C 73.832 145.084,74.136 144.635,74.508 144.288 C 74.879 143.941,75.183 143.445,75.183 143.185 C 75.183 142.907,75.327 142.712,75.534 142.712 C 75.727 142.712,75.822 142.611,75.746 142.487 C 75.669 142.364,75.764 142.262,75.957 142.262 C 76.150 142.262,76.308 142.111,76.308 141.927 C 76.308 141.584,76.690 141.050,77.624 140.084 C 77.915 139.784,78.181 139.366,78.217 139.156 C 78.252 138.945,78.395 138.799,78.533 138.829 C 78.671 138.860,78.784 138.756,78.784 138.598 C 78.784 138.439,78.987 138.164,79.235 137.985 C 79.482 137.807,79.685 137.491,79.685 137.284 C 79.685 137.077,79.837 136.850,80.023 136.778 C 80.208 136.707,80.360 136.443,80.360 136.192 C 80.360 135.884,80.508 135.734,80.810 135.734 C 81.089 135.734,81.261 135.584,81.262 135.340 C 81.262 135.124,81.566 134.623,81.937 134.227 C 82.308 133.832,82.611 133.350,82.611 133.158 C 82.611 132.966,82.763 132.808,82.949 132.808 C 83.134 132.808,83.286 132.656,83.286 132.470 C 83.286 132.285,83.388 132.133,83.512 132.133 C 83.635 132.133,83.737 131.930,83.737 131.683 C 83.737 131.419,83.887 131.232,84.098 131.232 C 84.339 131.232,84.413 131.354,84.321 131.595 C 84.221 131.855,84.278 131.921,84.522 131.827 C 84.709 131.755,84.862 131.799,84.862 131.924 C 84.862 132.049,85.267 132.536,85.763 133.007 C 86.258 133.478,86.663 133.981,86.663 134.124 C 86.663 134.267,86.764 134.384,86.888 134.384 C 87.169 134.384,89.041 136.181,88.772 136.194 C 88.664 136.199,88.855 136.354,89.195 136.538 C 89.536 136.723,89.814 137.051,89.814 137.268 C 89.814 137.484,90.017 137.807,90.264 137.985 C 90.512 138.164,90.715 138.419,90.715 138.552 C 90.715 138.685,91.069 138.818,91.503 138.847 C 92.083 138.886,92.290 138.809,92.290 138.555 C 92.290 138.366,92.392 138.210,92.515 138.210 C 92.639 138.210,92.741 138.008,92.741 137.760 C 92.741 137.513,92.842 137.310,92.966 137.310 C 93.089 137.310,93.191 136.854,93.191 136.297 C 93.191 135.740,93.292 135.284,93.416 135.284 C 93.540 135.284,93.641 134.940,93.641 134.520 C 93.641 134.049,93.770 133.707,93.979 133.627 C 94.203 133.541,94.316 133.188,94.316 132.577 C 94.316 132.070,94.397 131.706,94.495 131.766 C 94.593 131.827,94.697 131.554,94.727 131.161 C 94.757 130.767,94.879 130.411,94.999 130.370 C 95.119 130.328,95.217 129.853,95.217 129.314 C 95.217 128.774,95.318 128.270,95.442 128.194 C 95.566 128.117,95.667 127.757,95.667 127.392 C 95.667 127.028,95.768 126.730,95.892 126.730 C 96.016 126.730,96.117 126.275,96.117 125.718 C 96.117 124.967,96.205 124.705,96.455 124.705 C 96.640 124.705,96.792 124.508,96.792 124.268 C 96.792 124.027,96.894 123.768,97.017 123.692 C 97.141 123.615,97.243 123.153,97.243 122.665 C 97.243 122.177,97.344 121.778,97.468 121.778 C 97.591 121.778,97.693 121.424,97.693 120.990 C 97.693 120.557,97.794 120.203,97.918 120.203 C 98.042 120.203,98.143 119.750,98.143 119.197 C 98.143 118.363,98.205 118.215,98.507 118.330 C 98.785 118.437,98.839 118.370,98.735 118.042 C 98.660 117.807,98.750 117.324,98.934 116.969 C 99.118 116.615,99.268 115.982,99.268 115.562 C 99.268 115.143,99.370 114.800,99.494 114.800 C 99.617 114.800,99.719 114.344,99.719 113.787 C 99.719 113.230,99.820 112.774,99.944 112.774 C 100.068 112.774,100.169 112.420,100.169 111.986 C 100.169 111.553,100.245 111.198,100.338 111.197 C 100.739 111.194,101.294 109.739,101.294 108.691 C 101.294 108.001,101.381 107.624,101.519 107.710 C 101.647 107.789,101.745 107.599,101.745 107.273 C 101.745 106.956,101.846 106.697,101.970 106.697 C 102.093 106.697,102.195 106.140,102.195 105.459 C 102.195 104.778,102.296 104.221,102.420 104.221 C 102.544 104.221,102.645 103.914,102.645 103.538 C 102.645 103.163,102.775 102.806,102.934 102.745 C 103.093 102.684,103.246 102.358,103.273 102.020 C 103.301 101.683,103.425 101.373,103.547 101.332 C 103.670 101.291,103.770 100.809,103.770 100.263 C 103.770 99.716,103.872 99.268,103.995 99.268 C 104.119 99.268,104.221 98.813,104.221 98.255 C 104.221 97.698,104.322 97.243,104.446 97.243 C 104.569 97.243,104.671 97.040,104.671 96.792 C 104.671 96.545,104.813 96.342,104.987 96.342 C 105.197 96.342,105.342 95.984,105.421 95.273 C 105.600 93.653,105.825 92.741,106.047 92.741 C 106.157 92.741,106.246 92.285,106.246 91.728 C 106.246 91.171,106.348 90.715,106.472 90.715 C 106.595 90.715,106.697 90.417,106.697 90.053 C 106.697 89.689,106.798 89.328,106.922 89.252 C 107.046 89.175,107.147 88.666,107.147 88.120 C 107.147 87.404,107.227 87.158,107.436 87.238 C 107.630 87.313,107.744 87.106,107.781 86.612 C 107.812 86.207,107.935 85.841,108.054 85.800 C 108.174 85.759,108.272 85.331,108.272 84.850 C 108.272 84.369,108.475 83.615,108.723 83.174 C 108.986 82.705,109.173 81.955,109.173 81.366 C 109.173 80.696,109.269 80.360,109.463 80.360 C 109.627 80.360,109.776 80.048,109.807 79.637 C 109.838 79.240,109.945 78.860,110.045 78.793 C 110.146 78.727,110.242 78.267,110.259 77.773 C 110.275 77.279,110.392 76.840,110.519 76.798 C 110.645 76.756,110.748 76.375,110.748 75.952 C 110.748 75.529,110.850 75.183,110.974 75.183 C 111.097 75.183,111.199 74.879,111.199 74.508 C 111.199 74.136,111.300 73.832,111.424 73.832 C 111.548 73.832,111.649 73.478,111.649 73.044 C 111.649 72.494,111.751 72.257,111.986 72.257 C 112.246 72.257,112.324 71.969,112.324 71.020 C 112.324 70.028,112.413 69.729,112.774 69.503 C 113.132 69.280,113.225 68.978,113.225 68.038 C 113.225 67.387,113.326 66.854,113.450 66.854 C 113.573 66.854,113.675 66.398,113.675 65.841 C 113.675 65.085,113.761 64.828,114.017 64.828 C 114.264 64.828,114.322 64.681,114.225 64.296 C 114.133 63.930,114.202 63.721,114.446 63.628 C 114.641 63.553,114.800 63.337,114.800 63.147 C 114.800 62.958,114.902 62.802,115.025 62.802 C 115.149 62.802,115.250 63.005,115.250 63.253 C 115.250 63.500,115.352 63.703,115.476 63.703 C 115.599 63.703,115.701 63.839,115.701 64.006 C 115.701 64.457,116.377 65.729,116.617 65.729 C 116.732 65.729,116.826 65.958,116.826 66.237 C 116.826 66.517,117.029 66.872,117.276 67.027 C 117.593 67.225,117.727 67.552,117.727 68.132 C 117.727 68.585,117.786 68.896,117.858 68.824 C 118.036 68.646,118.852 69.483,118.852 69.843 C 118.852 70.002,119.055 70.277,119.302 70.456 C 119.550 70.634,119.752 70.961,119.752 71.181 C 119.752 71.401,119.854 71.581,119.977 71.581 C 120.101 71.581,120.203 71.726,120.203 71.903 C 120.203 72.080,120.361 72.383,120.556 72.577 C 120.770 72.792,120.853 73.107,120.766 73.381 C 120.680 73.652,120.725 73.832,120.879 73.832 C 121.250 73.832,121.778 74.417,121.778 74.829 C 121.778 75.024,121.880 75.183,122.003 75.183 C 122.127 75.183,122.228 75.378,122.228 75.617 C 122.228 75.855,122.482 76.250,122.791 76.493 C 123.101 76.737,123.354 77.149,123.354 77.410 C 123.354 77.671,123.455 77.884,123.579 77.884 C 123.703 77.884,123.804 78.064,123.804 78.285 C 123.804 78.505,124.007 78.831,124.254 79.010 C 124.514 79.197,124.705 79.592,124.705 79.943 C 124.705 80.325,124.915 80.718,125.267 80.995 C 125.577 81.239,125.830 81.595,125.830 81.786 C 125.830 81.978,125.931 82.197,126.055 82.273 C 126.179 82.350,126.280 82.563,126.280 82.747 C 126.280 83.129,127.265 84.187,127.621 84.187 C 127.750 84.187,127.856 84.519,127.856 84.925 C 127.856 85.405,128.013 85.777,128.306 85.988 C 128.554 86.166,128.760 86.467,128.763 86.656 C 128.767 86.846,128.916 87.193,129.094 87.428 C 129.272 87.663,129.373 87.926,129.320 88.013 C 129.266 88.100,129.472 88.304,129.777 88.468 C 130.123 88.653,130.332 88.962,130.332 89.290 C 130.332 89.578,130.433 89.814,130.557 89.814 C 130.681 89.814,130.782 90.017,130.782 90.264 C 130.782 90.512,130.884 90.715,131.007 90.715 C 131.131 90.715,131.232 90.911,131.232 91.152 C 131.232 91.392,131.334 91.651,131.458 91.728 C 131.581 91.804,131.683 92.063,131.683 92.304 C 131.683 92.544,131.835 92.741,132.020 92.741 C 132.206 92.741,132.358 92.928,132.358 93.157 C 132.358 93.387,132.662 93.892,133.033 94.281 C 133.405 94.669,133.708 95.197,133.708 95.453 C 133.708 95.709,133.810 95.856,133.934 95.779 C 134.063 95.699,134.159 95.909,134.159 96.275 C 134.159 96.720,134.392 97.110,134.942 97.582 C 135.372 97.953,135.727 98.427,135.730 98.636 C 135.732 98.845,135.836 99.079,135.959 99.156 C 136.083 99.232,136.185 99.551,136.185 99.863 C 136.185 100.218,136.290 100.396,136.466 100.337 C 136.808 100.222,137.293 100.810,137.303 101.351 C 137.307 101.567,137.411 101.745,137.535 101.745 C 137.659 101.745,137.760 101.998,137.760 102.307 C 137.760 102.617,137.862 102.870,137.985 102.870 C 138.109 102.870,138.210 102.981,138.210 103.118 C 138.210 103.254,138.565 103.720,138.998 104.153 C 139.536 104.691,139.786 105.148,139.786 105.594 C 139.786 105.953,139.887 106.246,140.011 106.246 C 140.135 106.246,140.236 106.384,140.236 106.551 C 140.236 106.719,140.490 107.129,140.799 107.463 C 141.109 107.797,141.362 108.217,141.362 108.397 C 141.362 108.576,141.463 108.723,141.587 108.723 C 141.711 108.723,141.812 108.976,141.812 109.285 C 141.812 109.595,141.888 109.849,141.981 109.850 C 142.209 109.852,142.712 110.966,142.712 111.469 C 142.712 111.692,142.818 111.874,142.948 111.874 C 143.309 111.874,144.288 112.935,144.288 113.327 C 144.288 113.518,144.389 113.675,144.513 113.675 C 144.637 113.675,144.738 113.871,144.738 114.112 C 144.738 114.352,144.840 114.611,144.963 114.688 C 145.087 114.764,145.189 115.023,145.189 115.264 C 145.189 115.504,145.290 115.701,145.414 115.701 C 145.537 115.701,145.639 115.906,145.639 116.158 C 145.639 116.409,145.791 116.673,145.976 116.745 C 146.162 116.816,146.314 117.044,146.314 117.251 C 146.314 117.458,146.517 117.773,146.764 117.952 C 147.012 118.130,147.214 118.507,147.214 118.789 C 147.214 119.095,147.351 119.302,147.552 119.302 C 147.738 119.302,147.890 119.458,147.890 119.649 C 147.890 119.840,148.092 120.214,148.340 120.480 C 148.588 120.745,148.790 121.138,148.790 121.352 C 148.790 121.566,148.896 121.776,149.025 121.819 C 149.155 121.862,149.277 122.117,149.297 122.385 C 149.317 122.653,149.414 122.823,149.512 122.762 C 149.610 122.702,149.690 122.810,149.690 123.003 C 149.690 123.196,149.854 123.354,150.054 123.354 C 150.307 123.354,150.382 123.491,150.301 123.804 C 150.224 124.097,150.294 124.254,150.499 124.254 C 150.687 124.254,150.816 124.484,150.816 124.817 C 150.816 125.127,150.917 125.380,151.041 125.380 C 151.165 125.380,151.266 125.582,151.266 125.830 C 151.266 126.078,151.367 126.280,151.491 126.280 C 151.615 126.280,151.716 126.550,151.716 126.881 C 151.716 127.211,151.775 127.422,151.848 127.349 C 152.039 127.158,152.842 128.022,152.842 128.419 C 152.842 128.604,152.943 128.756,153.067 128.756 C 153.191 128.756,153.292 128.953,153.292 129.193 C 153.292 129.434,153.393 129.693,153.517 129.769 C 153.641 129.846,153.742 130.081,153.742 130.291 C 153.742 130.502,153.945 130.800,154.192 130.955 C 154.440 131.110,154.643 131.383,154.643 131.562 C 154.643 131.741,154.896 132.140,155.205 132.450 C 155.515 132.760,155.768 133.169,155.768 133.361 C 155.768 133.552,155.869 133.708,155.993 133.708 C 156.117 133.708,156.218 133.962,156.218 134.271 C 156.218 134.581,156.320 134.834,156.443 134.834 C 156.567 134.834,156.669 134.989,156.669 135.179 C 156.669 135.368,156.820 135.582,157.006 135.653 C 157.192 135.724,157.344 136.025,157.344 136.321 C 157.344 136.617,157.445 136.860,157.569 136.860 C 157.693 136.860,157.794 137.062,157.794 137.310 C 157.794 137.558,157.895 137.760,158.019 137.760 C 158.143 137.760,158.247 137.938,158.251 138.154 C 158.260 138.641,158.798 139.382,158.998 139.182 C 159.079 139.102,159.145 139.205,159.145 139.411 C 159.145 139.617,159.297 139.786,159.482 139.786 C 159.668 139.786,159.820 139.983,159.820 140.223 C 159.820 140.463,159.921 140.723,160.045 140.799 C 160.169 140.876,160.270 141.135,160.270 141.375 C 160.270 141.615,160.371 141.812,160.495 141.812 C 160.619 141.812,160.720 142.015,160.720 142.262 C 160.720 142.510,160.822 142.712,160.945 142.712 C 161.069 142.712,161.171 142.864,161.171 143.050 C 161.171 143.236,161.297 143.362,161.452 143.331 C 161.613 143.299,161.765 143.553,161.807 143.923 C 161.848 144.279,162.076 144.779,162.314 145.034 C 162.552 145.290,162.746 145.658,162.746 145.852 C 162.746 146.047,162.949 146.332,163.196 146.487 C 163.444 146.642,163.647 146.973,163.647 147.223 C 163.647 147.474,163.799 147.737,163.984 147.808 C 164.170 147.880,164.322 148.130,164.322 148.364 C 164.322 148.598,164.423 148.790,164.547 148.790 C 164.671 148.790,164.772 148.993,164.772 149.240 C 164.772 149.488,164.873 149.690,164.997 149.690 C 165.121 149.690,165.222 149.842,165.222 150.028 C 165.222 150.214,165.324 150.366,165.447 150.366 C 165.571 150.366,165.672 150.521,165.672 150.710 C 165.672 150.900,165.824 151.114,166.010 151.185 C 166.196 151.256,166.348 151.494,166.348 151.713 C 166.348 151.932,166.493 152.232,166.671 152.379 C 167.102 152.738,167.927 154.339,167.763 154.503 C 167.692 154.574,167.800 154.696,168.003 154.773 C 168.205 154.851,168.315 155.006,168.247 155.116 C 168.178 155.227,168.280 155.318,168.473 155.318 C 168.719 155.318,168.824 155.537,168.824 156.052 C 168.824 156.542,168.973 156.879,169.274 157.067 C 169.522 157.221,169.724 157.549,169.724 157.796 C 169.724 158.043,169.826 158.244,169.949 158.244 C 170.073 158.244,170.174 158.422,170.174 158.640 C 170.174 158.858,170.527 159.339,170.957 159.710 C 171.467 160.148,171.742 160.584,171.745 160.959 C 171.748 161.276,171.963 161.764,172.222 162.043 C 172.482 162.321,172.723 162.720,172.759 162.929 C 172.794 163.138,172.936 163.284,173.074 163.253 C 173.213 163.222,173.326 163.290,173.326 163.405 C 173.326 163.701,174.645 164.322,175.274 164.322 C 175.564 164.322,175.802 164.423,175.802 164.547 C 175.802 164.671,176.106 164.772,176.477 164.772 C 176.849 164.772,177.153 164.873,177.153 164.997 C 177.153 165.121,177.507 165.222,177.940 165.222 C 178.438 165.222,178.728 165.330,178.728 165.516 C 178.728 165.702,179.076 165.830,179.679 165.866 C 180.202 165.897,180.707 166.043,180.801 166.191 C 180.895 166.339,180.974 166.373,180.976 166.266 C 180.978 166.159,181.229 166.234,181.534 166.434 C 181.839 166.634,182.441 166.798,182.871 166.798 C 183.302 166.798,183.716 166.899,183.793 167.023 C 183.869 167.147,184.230 167.248,184.594 167.248 C 184.994 167.248,185.256 167.366,185.256 167.547 C 185.256 167.750,185.470 167.814,185.923 167.748 C 186.345 167.686,186.723 167.783,186.952 168.012 C 187.151 168.211,187.509 168.374,187.748 168.374 C 187.987 168.374,188.182 168.475,188.182 168.599 C 188.182 168.723,188.537 168.824,188.970 168.824 C 189.403 168.824,189.758 168.925,189.758 169.049 C 189.758 169.173,190.017 169.274,190.334 169.274 C 190.661 169.274,190.850 169.371,190.771 169.499 C 190.684 169.640,191.136 169.724,191.972 169.724 C 192.955 169.724,193.346 169.814,193.441 170.062 C 193.512 170.248,193.726 170.400,193.915 170.400 C 194.105 170.400,194.260 170.501,194.260 170.625 C 194.260 170.748,194.615 170.850,195.048 170.850 C 195.481 170.850,195.836 170.951,195.836 171.075 C 195.836 171.199,196.292 171.300,196.849 171.300 C 197.406 171.300,197.862 171.401,197.862 171.525 C 197.862 171.649,198.165 171.750,198.537 171.750 C 198.948 171.750,199.212 171.867,199.212 172.049 C 199.212 172.255,199.430 172.316,199.918 172.244 C 200.416 172.171,200.684 172.249,200.830 172.508 C 200.947 172.719,201.319 172.876,201.699 172.876 C 202.065 172.876,202.364 172.977,202.364 173.101 C 202.364 173.225,202.667 173.326,203.039 173.326 C 203.410 173.326,203.714 173.427,203.714 173.551 C 203.714 173.675,204.069 173.776,204.502 173.776 C 204.935 173.776,205.290 173.877,205.290 174.001 C 205.290 174.125,205.583 174.226,205.941 174.226 C 206.312 174.226,206.648 174.371,206.722 174.564 C 206.798 174.761,207.135 174.902,207.534 174.902 C 207.909 174.902,208.216 175.003,208.216 175.127 C 208.216 175.250,208.571 175.352,209.004 175.352 C 209.437 175.352,209.792 175.453,209.792 175.577 C 209.792 175.701,210.248 175.802,210.805 175.802 C 211.362 175.802,211.818 175.903,211.818 176.027 C 211.818 176.151,212.020 176.252,212.268 176.252 C 212.515 176.252,212.718 176.390,212.718 176.559 C 212.718 176.764,212.903 176.830,213.281 176.757 C 213.746 176.668,213.844 176.737,213.844 177.156 C 213.844 177.676,214.860 178.727,215.363 178.728 C 215.614 178.728,215.755 179.184,215.665 179.702 C 215.648 179.804,215.722 179.832,215.831 179.765 C 215.940 179.698,216.264 179.893,216.551 180.198 C 216.838 180.504,217.197 180.754,217.347 180.754 C 217.498 180.754,217.686 181.011,217.765 181.326 C 217.844 181.641,218.007 181.837,218.127 181.763 C 218.247 181.689,218.346 181.742,218.346 181.882 C 218.346 182.246,218.929 182.780,219.327 182.780 C 219.513 182.780,219.700 183.008,219.742 183.286 C 219.785 183.568,219.954 183.764,220.123 183.727 C 220.318 183.685,220.378 183.790,220.289 184.020 C 220.209 184.229,220.245 184.321,220.376 184.241 C 220.499 184.164,220.660 184.260,220.735 184.454 C 220.809 184.647,221.062 184.806,221.296 184.806 C 221.603 184.806,221.722 184.967,221.722 185.382 C 221.722 185.711,221.819 185.898,221.949 185.818 C 222.073 185.741,222.236 185.835,222.310 186.028 C 222.384 186.221,222.535 186.323,222.646 186.254 C 222.757 186.186,222.847 186.288,222.847 186.481 C 222.847 186.682,223.040 186.832,223.298 186.832 C 223.546 186.832,223.748 186.982,223.748 187.167 C 223.748 187.633,224.456 188.414,224.727 188.246 C 224.858 188.165,224.891 188.262,224.807 188.480 C 224.729 188.685,224.737 188.841,224.825 188.828 C 225.431 188.738,225.774 188.911,225.774 189.308 C 225.774 189.555,225.875 189.758,225.999 189.758 C 226.123 189.758,226.224 189.907,226.224 190.089 C 226.224 190.294,226.355 190.369,226.571 190.286 C 226.788 190.203,226.893 190.265,226.852 190.452 C 226.816 190.616,226.913 190.768,227.068 190.789 C 227.223 190.810,227.426 190.840,227.520 190.855 C 227.613 190.871,227.824 191.187,227.989 191.559 C 228.153 191.930,228.431 192.234,228.606 192.234 C 228.782 192.234,228.900 192.358,228.869 192.510 C 228.838 192.662,229.041 192.821,229.319 192.863 C 229.598 192.906,229.826 193.096,229.826 193.287 C 229.826 193.477,230.080 193.832,230.390 194.077 C 230.701 194.321,230.907 194.600,230.847 194.696 C 230.788 194.792,230.990 194.822,231.296 194.764 C 231.735 194.680,231.851 194.751,231.851 195.103 C 231.851 195.679,232.908 196.736,233.482 196.736 C 233.843 196.736,233.900 196.841,233.785 197.299 C 233.686 197.693,233.736 197.862,233.951 197.862 C 234.120 197.862,234.441 198.064,234.665 198.312 C 234.889 198.559,235.209 198.762,235.375 198.762 C 235.669 198.762,235.770 199.028,235.695 199.606 C 235.675 199.761,235.792 199.887,235.956 199.887 C 236.120 199.887,236.400 200.090,236.579 200.338 C 237.371 201.437,238.154 200.934,238.154 199.325 C 238.154 198.499,238.056 197.862,237.929 197.862 C 237.805 197.862,237.704 197.665,237.704 197.425 C 237.704 197.184,237.603 196.925,237.479 196.849 C 237.355 196.772,237.254 196.310,237.254 195.822 C 237.254 195.334,237.153 194.935,237.029 194.935 C 236.905 194.935,236.804 194.637,236.804 194.273 C 236.804 193.909,236.702 193.549,236.579 193.472 C 236.455 193.396,236.353 192.984,236.353 192.558 C 236.353 192.020,236.250 191.784,236.016 191.784 C 235.791 191.784,235.678 191.559,235.678 191.109 C 235.678 190.737,235.577 190.433,235.453 190.433 C 235.329 190.433,235.228 189.977,235.228 189.420 C 235.228 188.863,235.127 188.407,235.003 188.407 C 234.879 188.407,234.778 188.110,234.778 187.745 C 234.778 187.381,234.676 187.021,234.553 186.944 C 234.429 186.868,234.328 186.457,234.328 186.031 C 234.328 185.531,234.228 185.276,234.046 185.312 C 233.878 185.346,233.736 185.075,233.694 184.637 C 233.655 184.235,233.529 183.905,233.413 183.905 C 233.297 183.905,233.202 183.450,233.202 182.893 C 233.202 182.335,233.101 181.880,232.977 181.880 C 232.853 181.880,232.752 181.697,232.752 181.474 C 232.752 181.252,232.647 180.965,232.519 180.837 C 232.391 180.709,232.277 180.123,232.265 179.535 C 232.251 178.832,232.134 178.425,231.922 178.343 C 231.745 178.275,231.655 178.077,231.722 177.903 C 231.789 177.728,231.694 177.528,231.510 177.458 C 231.285 177.371,231.176 177.007,231.176 176.341 C 231.176 175.797,231.075 175.352,230.951 175.352 C 230.827 175.352,230.726 175.149,230.726 174.902 C 230.726 174.654,230.625 174.451,230.501 174.451 C 230.377 174.451,230.276 174.006,230.276 173.462 C 230.276 172.773,230.169 172.433,229.924 172.339 C 229.727 172.263,229.643 172.088,229.734 171.942 C 229.834 171.779,229.797 171.741,229.634 171.842 C 229.487 171.933,229.313 171.849,229.237 171.652 C 229.163 171.458,228.910 171.300,228.676 171.300 C 228.442 171.300,228.250 171.199,228.250 171.075 C 228.250 170.951,227.991 170.850,227.674 170.850 C 227.347 170.850,227.158 170.752,227.237 170.625 C 227.316 170.497,227.127 170.400,226.800 170.400 C 226.483 170.400,226.224 170.298,226.224 170.174 C 226.224 170.051,226.032 169.949,225.798 169.949 C 225.563 169.949,225.313 169.797,225.242 169.612 C 225.171 169.426,224.907 169.274,224.655 169.274 C 224.404 169.274,224.198 169.173,224.198 169.049 C 224.198 168.925,223.995 168.824,223.748 168.824 C 223.500 168.824,223.298 168.723,223.298 168.599 C 223.298 168.475,223.088 168.374,222.831 168.374 C 222.333 168.374,221.722 167.887,221.722 167.489 C 221.722 167.357,221.525 167.248,221.285 167.248 C 221.045 167.248,220.786 167.147,220.709 167.023 C 220.633 166.899,220.373 166.798,220.133 166.798 C 219.893 166.798,219.696 166.697,219.696 166.573 C 219.696 166.449,219.494 166.348,219.246 166.348 C 218.998 166.348,218.796 166.246,218.796 166.123 C 218.796 165.999,218.644 165.898,218.458 165.898 C 218.272 165.898,218.120 165.755,218.120 165.581 C 218.120 165.375,217.963 165.306,217.670 165.382 C 217.352 165.465,217.220 165.389,217.220 165.123 C 217.220 164.915,217.127 164.803,217.013 164.873 C 216.899 164.944,216.653 164.848,216.466 164.662 C 216.280 164.475,215.917 164.322,215.660 164.322 C 215.404 164.322,215.194 164.221,215.194 164.097 C 215.194 163.973,214.992 163.872,214.744 163.872 C 214.496 163.872,214.294 163.770,214.294 163.647 C 214.294 163.523,214.041 163.421,213.731 163.421 C 213.381 163.421,213.168 163.294,213.168 163.084 C 213.168 162.896,212.968 162.746,212.718 162.746 C 212.470 162.746,212.268 162.645,212.268 162.521 C 212.268 162.397,212.037 162.296,211.755 162.296 C 211.473 162.296,211.096 162.093,210.917 161.846 C 210.739 161.598,210.413 161.396,210.192 161.396 C 209.972 161.396,209.792 161.258,209.792 161.089 C 209.792 160.884,209.606 160.818,209.229 160.890 C 208.816 160.969,208.666 160.901,208.666 160.634 C 208.666 160.420,208.481 160.270,208.216 160.270 C 207.968 160.270,207.766 160.169,207.766 160.045 C 207.766 159.921,207.535 159.820,207.253 159.820 C 206.971 159.820,206.594 159.617,206.415 159.370 C 206.237 159.122,205.911 158.920,205.690 158.920 C 205.470 158.920,205.290 158.768,205.290 158.582 C 205.290 158.372,205.077 158.244,204.727 158.244 C 204.418 158.244,204.164 158.143,204.164 158.019 C 204.164 157.895,203.962 157.794,203.714 157.794 C 203.467 157.794,203.264 157.693,203.264 157.569 C 203.264 157.445,203.011 157.344,202.701 157.344 C 202.392 157.344,202.138 157.243,202.138 157.119 C 202.138 156.995,201.936 156.894,201.688 156.894 C 201.441 156.894,201.238 156.745,201.238 156.563 C 201.238 156.350,201.108 156.283,200.873 156.373 C 200.653 156.457,200.424 156.365,200.299 156.141 C 200.184 155.936,199.915 155.768,199.701 155.768 C 199.487 155.768,199.166 155.566,198.987 155.318 C 198.809 155.070,198.488 154.868,198.275 154.868 C 198.062 154.868,197.826 154.766,197.749 154.643 C 197.673 154.519,197.413 154.418,197.173 154.418 C 196.933 154.418,196.736 154.266,196.736 154.080 C 196.736 153.894,196.539 153.742,196.299 153.742 C 196.059 153.742,195.800 153.641,195.723 153.517 C 195.647 153.393,195.410 153.292,195.197 153.292 C 194.984 153.292,194.664 153.089,194.485 152.842 C 194.290 152.571,193.902 152.392,193.511 152.392 C 193.086 152.392,192.708 152.197,192.419 151.829 C 192.176 151.519,191.775 151.266,191.529 151.266 C 191.283 151.266,191.145 151.165,191.221 151.041 C 191.298 150.917,191.144 150.816,190.881 150.816 C 190.390 150.816,189.758 150.337,189.758 149.966 C 189.758 149.406,189.009 148.340,188.616 148.340 C 188.270 148.340,188.182 148.180,188.182 147.552 C 188.182 147.119,188.081 146.764,187.957 146.764 C 187.833 146.764,187.732 146.562,187.732 146.314 C 187.732 146.066,187.631 145.864,187.507 145.864 C 187.383 145.864,187.282 145.611,187.282 145.301 C 187.282 144.971,187.166 144.762,187.001 144.795 C 186.846 144.826,186.745 144.724,186.775 144.569 C 186.806 144.415,186.680 144.288,186.494 144.288 C 186.270 144.288,186.156 144.065,186.156 143.626 C 186.156 143.262,186.055 142.902,185.931 142.825 C 185.808 142.748,185.706 142.489,185.706 142.249 C 185.706 142.009,185.605 141.812,185.481 141.812 C 185.357 141.812,185.256 141.675,185.256 141.507 C 185.256 141.340,184.995 140.921,184.676 140.577 C 184.259 140.127,184.134 139.802,184.230 139.419 C 184.314 139.088,184.265 138.886,184.103 138.886 C 183.754 138.886,183.246 138.193,183.237 137.704 C 183.233 137.487,183.129 137.310,183.005 137.310 C 182.881 137.310,182.780 137.107,182.780 136.860 C 182.780 136.612,182.679 136.410,182.555 136.410 C 182.431 136.410,182.330 136.156,182.330 135.847 C 182.330 135.497,182.202 135.284,181.992 135.284 C 181.805 135.284,181.654 135.084,181.654 134.834 C 181.654 134.586,181.553 134.384,181.429 134.384 C 181.306 134.384,181.204 134.200,181.204 133.976 C 181.204 133.752,181.002 133.351,180.754 133.085 C 180.506 132.819,180.301 132.370,180.297 132.086 C 180.293 131.802,180.144 131.378,179.966 131.143 C 179.788 130.908,179.696 130.630,179.762 130.524 C 179.827 130.418,179.766 130.332,179.626 130.332 C 179.217 130.332,178.728 129.728,178.728 129.223 C 178.728 128.966,178.652 128.756,178.559 128.755 C 178.331 128.752,177.828 127.639,177.828 127.136 C 177.828 126.913,177.704 126.756,177.552 126.787 C 177.400 126.818,177.241 126.615,177.198 126.337 C 177.156 126.058,177.039 125.830,176.938 125.830 C 176.837 125.830,176.706 125.577,176.647 125.267 C 176.583 124.933,176.644 124.705,176.796 124.705 C 176.938 124.705,177.202 124.490,177.384 124.227 C 177.566 123.964,177.842 123.617,177.997 123.455 C 178.151 123.293,178.278 123.099,178.278 123.022 C 178.278 122.771,179.377 121.778,179.656 121.778 C 179.806 121.778,179.864 121.713,179.785 121.634 C 179.570 121.419,180.353 120.203,180.706 120.203 C 181.069 120.203,181.654 119.658,181.654 119.321 C 181.654 118.963,182.383 118.183,182.595 118.314 C 182.697 118.377,182.780 118.316,182.780 118.180 C 182.780 117.851,183.813 116.826,184.144 116.826 C 184.287 116.826,184.346 116.675,184.275 116.491 C 184.205 116.307,184.223 116.180,184.316 116.210 C 184.409 116.239,185.055 115.689,185.752 114.988 C 186.449 114.286,187.078 113.771,187.151 113.844 C 187.223 113.916,187.282 113.705,187.282 113.375 C 187.282 112.924,187.394 112.774,187.732 112.774 C 188.027 112.774,188.182 112.624,188.182 112.340 C 188.182 112.067,188.363 111.879,188.668 111.833 C 188.936 111.794,189.180 111.582,189.212 111.363 C 189.243 111.144,189.582 110.673,189.964 110.316 C 190.346 109.959,190.658 109.556,190.658 109.420 C 190.658 109.284,190.738 109.198,190.836 109.229 C 191.107 109.315,192.234 108.112,192.234 107.736 C 192.234 107.553,192.462 107.369,192.741 107.326 C 193.019 107.284,193.222 107.125,193.191 106.973 C 193.160 106.821,193.240 106.697,193.370 106.697 C 193.700 106.697,194.709 105.652,194.717 105.300 C 194.727 104.890,195.270 104.221,195.592 104.221 C 195.741 104.221,195.800 104.119,195.723 103.995 C 195.647 103.872,195.696 103.770,195.833 103.770 C 196.098 103.770,197.186 102.764,197.186 102.519 C 197.186 102.438,197.440 102.173,197.749 101.929 C 198.059 101.686,198.312 101.342,198.312 101.165 C 198.312 100.989,198.456 100.844,198.633 100.844 C 198.810 100.844,199.154 100.591,199.397 100.281 C 199.640 99.972,199.952 99.719,200.089 99.719 C 200.226 99.719,200.338 99.516,200.338 99.268 C 200.338 98.968,200.488 98.818,200.788 98.818 C 201.089 98.818,201.238 98.668,201.238 98.366 C 201.238 98.107,201.862 97.302,202.701 96.479 C 203.506 95.690,204.164 94.881,204.164 94.681 C 204.164 94.480,204.270 94.316,204.400 94.316 C 204.725 94.316,205.740 95.360,205.740 95.695 C 205.740 95.846,206.196 96.406,206.753 96.940 C 207.310 97.474,207.769 98.039,207.773 98.195 C 207.782 98.535,208.309 99.268,208.544 99.268 C 208.802 99.268,210.231 100.923,210.237 101.227 C 210.240 101.376,210.597 101.842,211.030 102.263 C 211.463 102.684,211.818 103.129,211.818 103.252 C 211.818 103.375,212.020 103.659,212.268 103.883 C 212.515 104.107,212.718 104.433,212.718 104.606 C 212.718 104.780,212.812 104.864,212.927 104.793 C 213.042 104.722,213.169 104.894,213.208 105.174 C 213.255 105.503,213.461 105.709,213.787 105.756 C 214.066 105.795,214.294 105.971,214.294 106.147 C 214.294 106.323,214.471 106.679,214.688 106.938 C 214.904 107.198,215.257 107.617,215.471 107.870 C 215.685 108.123,215.806 108.419,215.739 108.527 C 215.672 108.634,215.877 108.723,216.194 108.723 C 216.579 108.723,216.770 108.846,216.770 109.094 C 216.770 109.298,217.124 109.809,217.558 110.230 C 217.991 110.651,218.346 111.136,218.346 111.309 C 218.346 111.481,218.447 111.685,218.571 111.761 C 218.694 111.838,218.796 112.097,218.796 112.337 C 218.796 112.624,218.950 112.774,219.246 112.774 C 219.581 112.774,219.696 112.924,219.696 113.361 C 219.696 113.790,219.787 113.913,220.034 113.818 C 220.219 113.747,220.371 113.795,220.371 113.925 C 220.371 114.054,220.777 114.550,221.272 115.025 C 221.767 115.501,222.172 116.101,222.172 116.358 C 222.172 116.616,222.273 116.826,222.396 116.826 C 222.765 116.826,223.748 117.783,223.748 118.142 C 223.748 118.326,223.807 118.418,223.879 118.346 C 224.064 118.161,224.915 119.052,224.773 119.282 C 224.709 119.386,224.908 119.659,225.215 119.890 C 225.522 120.121,225.774 120.443,225.774 120.607 C 225.774 120.771,225.875 120.842,225.999 120.765 C 226.123 120.689,226.227 120.809,226.231 121.033 C 226.240 121.531,226.743 122.228,227.093 122.228 C 227.234 122.228,227.349 122.356,227.349 122.512 C 227.349 122.668,227.552 122.922,227.800 123.077 C 228.047 123.231,228.250 123.520,228.250 123.717 C 228.250 123.915,228.504 124.277,228.815 124.521 C 229.125 124.766,229.322 125.059,229.252 125.173 C 229.181 125.287,229.238 125.380,229.378 125.380 C 229.687 125.380,230.276 125.941,230.276 126.237 C 230.276 126.354,230.427 126.575,230.611 126.728 C 230.795 126.881,230.880 127.122,230.800 127.262 C 230.720 127.403,230.727 127.453,230.817 127.373 C 231.020 127.191,232.752 128.862,232.752 129.239 C 232.752 129.390,233.455 130.194,234.314 131.025 C 235.173 131.855,235.815 132.597,235.740 132.672 C 235.665 132.747,235.772 132.808,235.978 132.808 C 236.185 132.808,236.353 132.964,236.353 133.155 C 236.353 133.346,236.556 133.720,236.804 133.985 C 237.051 134.251,237.254 134.605,237.254 134.771 C 237.254 134.938,237.558 135.371,237.929 135.734 C 238.301 136.097,238.604 136.328,238.604 136.247 C 238.604 135.953,239.266 136.980,239.273 137.285 C 239.276 137.457,239.634 137.900,240.068 138.270 C 240.501 138.640,240.855 139.110,240.855 139.315 C 240.855 139.519,241.058 139.833,241.306 140.011 C 241.553 140.190,241.756 140.471,241.756 140.637 C 241.756 140.803,241.857 140.876,241.981 140.799 C 242.105 140.723,242.206 140.872,242.206 141.131 C 242.206 141.389,242.357 141.659,242.542 141.730 C 242.727 141.801,242.823 141.950,242.754 142.061 C 242.686 142.172,242.889 142.262,243.206 142.262 C 243.680 142.262,243.782 142.369,243.782 142.863 C 243.782 143.193,243.845 143.400,243.922 143.322 C 244.135 143.109,244.872 144.119,244.745 144.450 C 244.672 144.639,244.836 144.738,245.221 144.738 C 245.706 144.738,245.808 144.842,245.808 145.339 C 245.808 145.669,245.873 145.873,245.954 145.792 C 246.154 145.593,246.692 146.334,246.701 146.820 C 246.706 147.089,246.888 147.214,247.271 147.214 C 247.706 147.214,247.833 147.330,247.833 147.727 C 247.833 148.010,248.036 148.387,248.284 148.565 C 248.531 148.743,248.734 149.126,248.734 149.416 C 248.734 149.709,248.833 149.881,248.959 149.803 C 249.083 149.727,249.184 149.822,249.184 150.015 C 249.184 150.208,249.289 150.366,249.417 150.366 C 249.697 150.366,251.210 151.846,251.210 152.121 C 251.210 152.228,251.463 152.451,251.773 152.617 C 252.082 152.782,252.335 153.054,252.335 153.220 C 252.335 153.386,252.639 153.839,253.011 154.228 C 253.382 154.617,253.686 155.057,253.686 155.207 C 253.686 155.357,253.939 155.670,254.249 155.903 C 254.558 156.135,254.811 156.410,254.811 156.513 C 254.811 156.806,255.417 157.339,255.573 157.183 C 255.649 157.106,255.712 157.314,255.712 157.644 C 255.712 158.027,255.834 158.244,256.050 158.244 C 256.235 158.244,256.387 158.402,256.387 158.595 C 256.387 158.788,256.488 158.883,256.612 158.807 C 256.736 158.730,256.837 158.803,256.837 158.969 C 256.837 159.135,257.040 159.416,257.288 159.595 C 257.535 159.773,257.738 160.060,257.738 160.231 C 257.738 160.403,257.991 160.742,258.301 160.986 C 258.610 161.229,258.863 161.624,258.863 161.862 C 258.863 162.146,259.019 162.296,259.313 162.296 C 259.614 162.296,259.764 162.446,259.764 162.746 C 259.764 162.994,259.865 163.196,259.989 163.196 C 260.113 163.196,260.214 163.305,260.214 163.438 C 260.214 163.700,260.768 164.322,261.002 164.322 C 261.267 164.322,261.790 164.961,261.790 165.285 C 261.790 165.590,262.323 166.194,263.742 167.494 C 264.558 168.242,265.166 168.470,265.166 168.029 C 265.166 167.847,265.279 167.724,265.417 167.755 C 265.556 167.786,265.700 167.622,265.739 167.391 C 265.778 167.160,266.120 166.667,266.501 166.295 C 266.881 165.923,267.192 165.472,267.192 165.292 C 267.192 164.910,267.728 164.322,268.076 164.322 C 268.209 164.322,268.317 164.069,268.317 163.759 C 268.317 163.346,268.437 163.196,268.768 163.196 C 269.049 163.196,269.218 163.046,269.218 162.796 C 269.218 162.576,269.420 162.249,269.668 162.071 C 269.916 161.892,270.118 161.516,270.118 161.233 C 270.118 160.836,270.245 160.720,270.681 160.720 C 271.070 160.720,271.244 160.597,271.244 160.320 C 271.244 160.100,271.446 159.773,271.694 159.595 C 271.941 159.416,272.144 159.039,272.144 158.757 C 272.144 158.475,272.220 158.244,272.313 158.244 C 272.669 158.243,273.720 157.161,273.720 156.795 C 273.720 156.373,274.232 155.768,274.589 155.768 C 274.714 155.768,274.942 155.419,275.097 154.992 C 275.251 154.566,275.460 154.268,275.561 154.330 C 275.663 154.393,275.746 154.286,275.746 154.093 C 275.746 153.900,275.847 153.742,275.971 153.742 C 276.095 153.742,276.196 153.577,276.196 153.375 C 276.196 153.173,276.550 152.673,276.984 152.265 C 277.417 151.856,277.772 151.363,277.772 151.169 C 277.772 150.975,277.856 150.816,277.959 150.816 C 278.061 150.816,278.279 150.566,278.443 150.261 C 278.606 149.956,278.826 149.759,278.931 149.824 C 279.120 149.941,279.210 149.616,279.139 149.071 C 279.119 148.917,279.222 148.790,279.369 148.790 C 279.723 148.790,280.231 148.101,280.240 147.608 C 280.245 147.367,280.422 147.214,280.698 147.214 C 280.998 147.214,281.148 147.064,281.148 146.764 C 281.148 146.507,281.298 146.314,281.499 146.314 C 281.692 146.314,281.794 146.223,281.725 146.113 C 281.657 146.002,281.752 145.853,281.937 145.782 C 282.122 145.711,282.273 145.493,282.273 145.298 C 282.273 144.943,283.379 143.689,283.625 143.766 C 283.697 143.788,283.771 143.601,283.790 143.349 C 283.809 143.097,284.235 142.489,284.737 141.997 C 285.239 141.505,285.650 140.907,285.650 140.669 C 285.650 140.431,285.802 140.236,285.988 140.236 C 286.173 140.236,286.328 140.059,286.332 139.842 C 286.341 139.356,286.879 138.615,287.079 138.814 C 287.160 138.895,287.226 138.792,287.226 138.586 C 287.226 138.379,287.327 138.210,287.451 138.210 C 287.575 138.210,287.676 138.030,287.676 137.810 C 287.676 137.391,288.920 136.153,289.130 136.363 C 289.197 136.430,289.252 136.215,289.252 135.884 C 289.252 135.554,289.328 135.287,289.420 135.291 C 289.660 135.301,290.501 135.958,290.433 136.082 C 290.402 136.138,290.444 136.176,290.526 136.164 C 290.607 136.153,290.764 136.305,290.874 136.502 C 290.985 136.699,291.265 136.860,291.499 136.860 C 291.732 136.860,291.987 137.062,292.065 137.310 C 292.144 137.558,292.353 137.760,292.531 137.760 C 292.708 137.760,292.853 137.862,292.853 137.985 C 292.853 138.109,292.996 138.210,293.171 138.210 C 293.346 138.210,294.051 138.768,294.737 139.449 C 295.423 140.129,296.141 140.687,296.332 140.687 C 296.523 140.687,296.680 140.838,296.680 141.024 C 296.680 141.210,296.784 141.362,296.912 141.362 C 297.215 141.362,298.706 142.852,298.706 143.155 C 298.706 143.283,298.912 143.388,299.163 143.388 C 299.647 143.388,301.182 144.769,301.182 145.205 C 301.182 145.346,301.334 145.403,301.519 145.332 C 301.705 145.261,301.857 145.308,301.857 145.437 C 301.857 145.764,302.441 146.313,302.798 146.321 C 303.172 146.330,304.333 147.338,304.333 147.654 C 304.333 147.784,304.513 147.890,304.734 147.890 C 304.954 147.890,305.280 148.092,305.459 148.340 C 305.637 148.588,305.913 148.790,306.071 148.790 C 306.231 148.790,306.359 149.050,306.359 149.377 C 306.359 149.822,306.446 149.930,306.719 149.826 C 306.948 149.738,307.241 149.893,307.523 150.252 C 307.768 150.562,308.115 150.816,308.295 150.816 C 308.475 150.816,309.078 151.272,309.635 151.829 C 310.192 152.386,310.751 152.842,310.877 152.842 C 311.185 152.842,312.212 153.883,312.212 154.196 C 312.212 154.332,312.313 154.382,312.437 154.305 C 312.560 154.228,312.662 154.324,312.662 154.517 C 312.662 154.723,312.856 154.868,313.134 154.868 C 313.394 154.868,313.891 155.172,314.237 155.543 C 314.584 155.914,314.980 156.218,315.116 156.218 C 315.252 156.218,315.363 156.370,315.363 156.556 C 315.363 156.744,315.563 156.894,315.813 156.894 C 316.113 156.894,316.263 157.044,316.263 157.344 C 316.263 157.644,316.413 157.794,316.714 157.794 C 316.961 157.794,317.164 157.895,317.164 158.019 C 317.164 158.143,317.268 158.244,317.396 158.244 C 317.523 158.244,317.939 158.599,318.319 159.032 C 318.700 159.465,319.127 159.820,319.269 159.820 C 319.564 159.821,320.765 160.804,320.765 161.044 C 320.765 161.246,321.360 161.846,321.559 161.846 C 321.642 161.846,322.018 162.175,322.395 162.577 C 322.772 162.980,323.218 163.279,323.386 163.243 C 323.554 163.206,323.692 163.316,323.692 163.486 C 323.692 163.656,323.945 163.931,324.254 164.097 C 324.564 164.262,324.817 164.482,324.817 164.585 C 324.817 164.688,325.020 164.772,325.267 164.772 C 325.586 164.772,325.718 164.922,325.718 165.287 C 325.718 165.644,325.858 165.812,326.178 165.836 C 326.431 165.855,326.927 166.181,327.281 166.560 C 327.635 166.938,328.046 167.248,328.195 167.248 C 328.345 167.248,328.408 167.401,328.336 167.589 C 328.234 167.856,328.326 167.899,328.762 167.789 C 329.069 167.712,329.319 167.737,329.319 167.843 C 329.320 168.157,330.361 169.274,330.653 169.274 C 330.801 169.274,330.859 169.375,330.782 169.499 C 330.706 169.623,330.790 169.724,330.970 169.724 C 331.150 169.724,331.355 169.876,331.426 170.062 C 331.498 170.248,331.702 170.400,331.881 170.400 C 332.059 170.400,332.461 170.703,332.774 171.075 C 333.086 171.446,333.508 171.750,333.710 171.750 C 334.126 171.750,334.721 172.270,334.721 172.634 C 334.721 172.767,334.975 172.876,335.284 172.876 C 335.646 172.876,335.847 173.002,335.847 173.229 C 335.847 173.668,336.384 174.226,336.806 174.226 C 336.979 174.226,337.257 174.479,337.423 174.789 C 337.588 175.098,337.836 175.352,337.974 175.352 C 338.111 175.352,338.370 175.554,338.548 175.802 C 338.727 176.050,339.042 176.252,339.249 176.252 C 339.456 176.252,339.686 176.410,339.760 176.604 C 339.835 176.798,339.998 176.893,340.122 176.816 C 340.247 176.739,340.349 176.786,340.349 176.922 C 340.349 177.241,341.836 178.728,342.155 178.728 C 342.291 178.728,342.350 178.811,342.287 178.913 C 342.138 179.154,342.958 179.854,343.388 179.854 C 343.572 179.854,343.848 180.056,344.003 180.304 C 344.157 180.551,344.411 180.754,344.567 180.754 C 344.723 180.754,344.851 180.899,344.851 181.077 C 344.851 181.254,345.053 181.463,345.301 181.542 C 345.549 181.621,345.751 181.830,345.751 182.007 C 345.751 182.185,345.929 182.330,346.145 182.330 C 346.614 182.330,347.777 183.281,347.777 183.664 C 347.777 183.811,347.868 183.876,347.979 183.807 C 348.089 183.739,348.238 183.834,348.309 184.019 C 348.380 184.204,348.598 184.356,348.793 184.356 C 349.211 184.356,350.253 185.339,350.253 185.734 C 350.253 185.884,350.317 185.942,350.396 185.864 C 350.474 185.786,350.735 185.971,350.975 186.277 C 351.215 186.582,351.584 186.832,351.796 186.832 C 352.007 186.832,352.326 187.034,352.504 187.282 C 352.683 187.530,352.964 187.732,353.130 187.732 C 353.296 187.732,353.373 187.826,353.302 187.941 C 353.231 188.056,353.398 188.221,353.672 188.308 C 354.316 188.513,354.755 188.957,354.755 189.404 C 354.755 189.632,354.956 189.758,355.318 189.758 C 355.693 189.758,355.881 189.883,355.881 190.133 C 355.881 190.340,355.942 190.447,356.017 190.372 C 356.158 190.231,356.408 190.402,357.344 191.277 C 357.642 191.556,357.968 191.784,358.068 191.784 C 358.168 191.784,358.440 192.037,358.673 192.347 C 358.905 192.656,359.221 192.909,359.375 192.909 C 359.529 192.909,359.708 193.112,359.773 193.360 C 359.837 193.607,360.065 193.810,360.279 193.810 C 360.493 193.810,360.833 194.000,361.035 194.233 C 361.237 194.466,361.603 194.700,361.849 194.753 C 362.095 194.806,362.271 194.970,362.240 195.117 C 362.209 195.265,362.295 195.385,362.431 195.385 C 362.567 195.385,362.951 195.678,363.285 196.035 C 363.619 196.393,364.090 196.724,364.332 196.770 C 364.665 196.835,364.768 197.032,364.754 197.584 C 364.737 198.262,364.787 198.312,365.486 198.312 C 365.898 198.312,366.235 198.419,366.235 198.551 C 366.235 199.019,367.694 198.683,367.763 198.199 C 367.823 197.782,365.852 195.385,365.449 195.385 C 365.140 195.385,363.770 193.691,363.764 193.303 C 363.761 193.087,363.610 192.909,363.429 192.909 C 363.212 192.909,363.148 192.780,363.243 192.533 C 363.353 192.244,363.296 192.191,362.999 192.305 C 362.785 192.387,362.664 192.367,362.730 192.260 C 362.796 192.153,362.599 191.877,362.292 191.646 C 361.985 191.416,361.733 191.059,361.733 190.854 C 361.733 190.649,361.575 190.421,361.381 190.346 C 361.188 190.272,361.079 190.130,361.141 190.031 C 361.202 189.932,361.055 189.837,360.815 189.819 C 360.276 189.778,359.707 189.235,359.707 188.761 C 359.707 188.567,359.606 188.407,359.482 188.407 C 359.358 188.407,359.257 188.250,359.257 188.056 C 359.257 187.863,359.181 187.746,359.088 187.796 C 358.867 187.914,358.130 187.134,358.301 186.963 C 358.373 186.891,358.309 186.832,358.159 186.832 C 357.825 186.832,356.781 185.816,356.781 185.491 C 356.781 185.362,356.654 185.281,356.500 185.312 C 356.345 185.343,356.244 185.242,356.275 185.087 C 356.306 184.932,356.222 184.806,356.090 184.806 C 355.757 184.806,355.207 184.226,355.198 183.865 C 355.188 183.452,354.630 182.755,354.452 182.934 C 354.371 183.014,354.305 182.955,354.305 182.801 C 354.305 182.510,353.766 181.880,353.517 181.880 C 353.278 181.880,352.729 181.255,352.729 180.982 C 352.729 180.842,352.653 180.768,352.560 180.818 C 352.339 180.936,351.602 180.156,351.773 179.985 C 351.845 179.913,351.735 179.854,351.529 179.854 C 351.281 179.854,351.154 179.667,351.154 179.306 C 351.154 178.956,350.991 178.707,350.703 178.616 C 350.456 178.537,350.253 178.328,350.253 178.150 C 350.253 177.973,350.152 177.828,350.028 177.828 C 349.904 177.828,349.803 177.677,349.803 177.493 C 349.803 177.003,349.091 176.252,348.628 176.252 C 348.407 176.252,348.227 176.093,348.227 175.898 C 348.227 175.402,347.671 174.902,347.118 174.902 C 346.793 174.902,346.652 174.757,346.652 174.425 C 346.652 173.983,345.215 172.425,344.807 172.425 C 344.707 172.425,344.651 172.340,344.682 172.235 C 344.713 172.130,344.403 171.729,343.994 171.344 C 343.584 170.959,343.234 170.448,343.216 170.209 C 343.196 169.945,343.064 169.819,342.882 169.889 C 342.708 169.956,342.609 169.875,342.647 169.696 C 342.683 169.526,342.586 169.412,342.431 169.443 C 342.276 169.474,342.150 169.384,342.150 169.244 C 342.150 169.104,341.959 168.824,341.726 168.622 C 341.493 168.420,341.264 168.054,341.217 167.808 C 341.168 167.550,340.917 167.330,340.625 167.288 C 340.346 167.249,340.175 167.122,340.246 167.007 C 340.317 166.892,340.261 166.798,340.121 166.798 C 339.785 166.798,339.223 166.226,339.223 165.883 C 339.223 165.734,338.976 165.383,338.675 165.103 C 338.373 164.823,338.187 164.533,338.262 164.458 C 338.337 164.383,338.229 164.322,338.023 164.322 C 337.817 164.322,337.648 164.171,337.648 163.987 C 337.648 163.553,336.956 162.746,336.585 162.746 C 336.331 162.746,336.275 162.632,336.305 162.175 C 336.319 161.967,335.665 161.396,335.413 161.396 C 335.280 161.396,335.172 161.314,335.172 161.215 C 335.172 160.977,333.697 159.370,333.479 159.370 C 333.214 159.370,332.246 158.165,332.246 157.834 C 332.245 157.476,331.697 156.894,331.361 156.894 C 331.228 156.894,331.120 156.751,331.120 156.577 C 331.120 156.371,330.962 156.302,330.670 156.378 C 330.322 156.469,330.219 156.385,330.219 156.009 C 330.219 155.560,329.315 154.418,328.960 154.418 C 328.716 154.418,328.209 153.664,328.201 153.290 C 328.197 153.103,327.991 152.824,327.743 152.669 C 327.496 152.514,327.293 152.237,327.293 152.052 C 327.293 151.867,327.167 151.742,327.012 151.773 C 326.857 151.804,326.756 151.702,326.787 151.548 C 326.818 151.393,326.744 151.266,326.623 151.266 C 326.235 151.266,324.142 149.123,324.142 148.724 C 324.142 148.490,323.966 148.340,323.692 148.340 C 323.361 148.340,323.241 148.190,323.241 147.777 C 323.241 147.447,323.125 147.238,322.960 147.271 C 322.805 147.302,322.704 147.200,322.735 147.046 C 322.766 146.891,322.701 146.764,322.590 146.764 C 322.264 146.764,319.190 143.657,319.190 143.328 C 319.190 143.039,318.535 142.327,316.995 140.940 C 316.593 140.577,316.263 140.068,316.263 139.808 C 316.263 139.531,316.119 139.336,315.912 139.336 C 315.719 139.336,315.624 139.235,315.701 139.111 C 315.780 138.983,315.590 138.886,315.264 138.886 C 314.839 138.886,314.688 138.768,314.688 138.438 C 314.688 138.191,314.358 137.684,313.956 137.311 C 311.627 135.152,311.126 134.520,311.367 134.049 C 311.398 133.988,311.069 133.695,310.636 133.397 C 310.203 133.098,309.699 132.641,309.517 132.381 C 309.335 132.121,309.060 131.908,308.905 131.908 C 308.745 131.908,308.681 131.759,308.757 131.561 C 308.830 131.370,308.798 131.243,308.685 131.279 C 308.369 131.381,307.235 130.152,307.198 129.668 C 307.181 129.431,307.086 129.287,306.988 129.348 C 306.889 129.409,306.809 129.300,306.809 129.107 C 306.809 128.914,306.728 128.756,306.628 128.756 C 306.332 128.756,304.783 127.255,304.783 126.968 C 304.783 126.823,304.682 126.766,304.558 126.843 C 304.434 126.920,304.333 126.809,304.333 126.596 C 304.333 126.384,303.924 125.821,303.423 125.345 C 302.923 124.869,302.594 124.479,302.692 124.478 C 302.790 124.477,302.591 124.292,302.249 124.067 C 301.908 123.842,301.697 123.589,301.780 123.506 C 301.864 123.422,301.807 123.354,301.653 123.354 C 301.305 123.354,300.732 122.796,300.732 122.456 C 300.732 122.316,300.630 122.265,300.506 122.341 C 300.379 122.420,300.281 122.231,300.281 121.904 C 300.281 121.587,300.191 121.328,300.080 121.328 C 299.969 121.328,299.645 121.086,299.360 120.789 C 299.075 120.493,298.710 120.302,298.549 120.363 C 298.369 120.432,298.255 120.304,298.255 120.032 C 298.255 119.592,297.247 118.402,296.874 118.402 C 296.767 118.402,296.680 118.250,296.680 118.064 C 296.680 117.878,296.579 117.727,296.455 117.727 C 296.331 117.727,296.230 117.571,296.230 117.381 C 296.230 116.986,294.975 115.680,294.782 115.873 C 294.711 115.943,294.654 115.878,294.654 115.728 C 294.654 115.579,294.097 114.903,293.416 114.228 C 292.735 113.552,292.178 112.848,292.178 112.662 C 292.178 112.474,291.978 112.324,291.728 112.324 C 291.325 112.324,291.150 111.963,291.256 111.351 C 291.274 111.249,291.184 111.230,291.056 111.309 C 290.929 111.388,290.764 111.295,290.690 111.102 C 290.616 110.909,290.464 110.807,290.353 110.876 C 290.243 110.944,290.152 110.887,290.152 110.749 C 290.152 110.610,289.704 110.056,289.157 109.517 C 288.610 108.977,288.222 108.477,288.294 108.404 C 288.367 108.332,288.257 108.272,288.051 108.272 C 287.845 108.272,287.676 108.120,287.676 107.933 C 287.676 107.237,286.439 106.246,285.569 106.246 C 284.845 106.246,284.750 106.312,284.750 106.809 C 284.750 107.119,284.648 107.372,284.524 107.372 C 284.401 107.372,284.299 107.523,284.299 107.707 C 284.299 108.170,283.592 108.955,283.324 108.789 C 283.202 108.713,283.176 108.769,283.266 108.914 C 283.355 109.058,283.282 109.232,283.104 109.300 C 282.926 109.368,282.551 109.871,282.270 110.417 C 281.989 110.964,281.675 111.359,281.573 111.295 C 281.470 111.232,281.324 111.430,281.247 111.736 C 281.170 112.041,280.914 112.466,280.678 112.680 C 280.441 112.894,280.248 113.256,280.248 113.485 C 280.248 113.713,280.146 113.900,280.023 113.900 C 279.899 113.900,279.797 114.102,279.797 114.350 C 279.797 114.649,279.647 114.800,279.352 114.800 C 279.064 114.800,278.856 114.999,278.765 115.361 C 278.687 115.670,278.533 115.867,278.423 115.798 C 278.312 115.730,278.222 115.911,278.222 116.200 C 278.222 116.490,278.019 116.873,277.772 117.051 C 277.524 117.230,277.321 117.561,277.321 117.786 C 277.321 118.012,277.093 118.441,276.815 118.739 C 275.917 119.699,275.746 119.952,275.746 120.316 C 275.746 120.711,274.629 121.924,274.347 121.835 C 274.250 121.804,274.170 122.009,274.170 122.291 C 274.170 122.574,273.967 122.950,273.720 123.129 C 273.472 123.307,273.270 123.616,273.270 123.815 C 273.270 124.013,272.915 124.472,272.482 124.833 C 272.048 125.194,271.694 125.616,271.694 125.770 C 271.694 126.029,271.308 126.582,270.625 127.302 C 270.470 127.465,270.343 127.747,270.343 127.928 C 270.343 128.110,270.191 128.316,270.006 128.388 C 269.820 128.459,269.668 128.729,269.668 128.988 C 269.668 129.246,269.567 129.396,269.443 129.319 C 269.319 129.243,269.218 129.399,269.218 129.666 C 269.218 129.933,268.889 130.459,268.486 130.835 C 268.056 131.237,267.784 131.692,267.825 131.938 C 267.869 132.199,267.762 132.358,267.544 132.358 C 267.350 132.358,267.192 132.514,267.192 132.705 C 267.192 132.896,266.989 133.269,266.742 133.535 C 266.494 133.801,266.292 134.159,266.292 134.330 C 266.292 134.699,265.749 135.284,265.407 135.284 C 265.275 135.284,265.166 135.488,265.166 135.736 C 265.166 135.985,264.862 136.507,264.491 136.895 C 264.119 137.284,263.815 137.693,263.815 137.803 C 263.815 137.914,263.562 138.278,263.253 138.612 C 262.943 138.946,262.690 139.346,262.690 139.502 C 262.690 139.873,262.508 139.861,262.111 139.465 C 261.934 139.288,261.790 138.927,261.790 138.663 C 261.790 138.400,261.688 138.247,261.564 138.323 C 261.441 138.400,261.339 138.304,261.339 138.111 C 261.339 137.918,261.231 137.760,261.098 137.760 C 260.777 137.760,260.214 137.184,260.214 136.856 C 260.214 136.712,259.758 136.152,259.201 135.610 C 258.644 135.069,258.185 134.495,258.181 134.336 C 258.173 134.031,257.184 132.808,256.945 132.808 C 256.696 132.808,256.162 132.173,256.162 131.878 C 256.162 131.721,255.853 131.273,255.475 130.883 C 255.098 130.493,254.772 129.957,254.752 129.690 C 254.732 129.424,254.641 129.207,254.550 129.207 C 254.221 129.207,253.236 128.133,253.236 127.774 C 253.236 127.571,253.134 127.406,253.011 127.406 C 252.887 127.406,252.786 127.237,252.786 127.031 C 252.786 126.824,252.728 126.713,252.658 126.783 C 252.483 126.958,251.212 125.690,251.203 125.331 C 251.195 125.037,250.535 124.040,250.535 124.324 C 250.535 124.409,250.348 124.302,250.120 124.086 C 249.892 123.869,249.746 123.616,249.796 123.523 C 249.845 123.430,249.728 123.354,249.535 123.354 C 249.337 123.354,249.184 123.162,249.184 122.914 C 249.184 122.516,248.227 121.328,247.906 121.328 C 247.670 121.328,246.708 120.099,246.708 119.798 C 246.708 119.638,246.453 119.252,246.141 118.940 C 245.829 118.628,245.633 118.277,245.705 118.161 C 245.777 118.044,245.678 117.888,245.485 117.814 C 245.293 117.740,245.201 117.573,245.281 117.443 C 245.361 117.313,245.324 117.270,245.199 117.348 C 244.885 117.541,243.782 116.260,243.782 115.703 C 243.782 115.454,243.688 115.250,243.574 115.250 C 243.252 115.250,241.351 113.271,241.192 112.771 C 241.114 112.525,240.854 112.324,240.615 112.324 C 240.335 112.324,240.180 112.169,240.180 111.887 C 240.180 111.647,240.079 111.388,239.955 111.311 C 239.831 111.235,239.730 111.031,239.730 110.858 C 239.730 110.504,238.699 109.398,238.369 109.398 C 238.251 109.398,238.154 109.167,238.154 108.885 C 238.154 108.603,237.952 108.226,237.704 108.047 C 237.456 107.869,237.254 107.501,237.254 107.231 C 237.254 106.850,237.152 106.765,236.804 106.857 C 236.438 106.952,236.353 106.863,236.353 106.385 C 236.353 106.061,236.274 105.822,236.176 105.853 C 235.939 105.928,234.778 104.757,234.778 104.443 C 234.778 104.306,234.676 104.257,234.553 104.333 C 234.425 104.412,234.328 104.223,234.328 103.896 C 234.328 103.579,234.200 103.320,234.043 103.320 C 233.887 103.320,233.558 103.050,233.312 102.720 C 233.066 102.390,232.712 101.967,232.527 101.780 C 232.341 101.592,232.180 101.381,232.170 101.310 C 232.101 100.859,231.756 100.394,231.490 100.394 C 231.317 100.394,231.176 100.188,231.176 99.936 C 231.176 99.472,229.647 97.758,229.325 97.862 C 229.229 97.893,229.150 97.836,229.150 97.737 C 229.150 97.637,228.797 97.170,228.365 96.698 C 227.933 96.227,227.636 95.750,227.704 95.640 C 227.772 95.529,227.670 95.378,227.478 95.304 C 227.285 95.230,227.183 95.079,227.251 94.968 C 227.320 94.857,227.262 94.766,227.122 94.766 C 226.785 94.766,226.224 94.194,226.224 93.852 C 226.224 93.702,225.977 93.351,225.675 93.071 C 225.373 92.792,225.188 92.501,225.262 92.427 C 225.337 92.352,225.273 92.290,225.120 92.290 C 224.755 92.290,224.200 91.728,224.191 91.350 C 224.182 90.969,223.172 89.814,222.848 89.814 C 222.713 89.814,222.619 89.688,222.639 89.533 C 222.710 88.986,222.620 88.664,222.429 88.782 C 222.323 88.847,222.003 88.448,221.719 87.894 C 221.434 87.341,221.048 86.888,220.861 86.888 C 220.674 86.888,220.583 86.827,220.658 86.752 C 220.733 86.677,220.547 86.387,220.245 86.107 C 219.943 85.827,219.696 85.433,219.696 85.230 C 219.696 85.028,219.595 84.862,219.471 84.862 C 219.347 84.862,219.246 84.693,219.246 84.487 C 219.246 84.281,219.188 84.169,219.118 84.239 C 218.925 84.433,217.670 83.126,217.670 82.731 C 217.670 82.541,217.569 82.386,217.445 82.386 C 217.321 82.386,217.220 82.217,217.220 82.011 C 217.220 81.805,217.167 81.689,217.102 81.754 C 216.919 81.937,215.194 80.178,215.194 79.808 C 215.194 79.430,214.164 78.334,213.809 78.334 C 213.666 78.334,213.627 78.107,213.711 77.772 C 213.795 77.435,213.756 77.209,213.613 77.209 C 213.226 77.209,212.242 76.114,212.207 75.645 C 212.189 75.408,212.094 75.264,211.996 75.324 C 211.898 75.385,211.818 75.277,211.818 75.084 C 211.818 74.891,211.712 74.733,211.582 74.733 C 211.188 74.733,210.242 73.655,210.242 73.205 C 210.242 72.973,209.992 72.649,209.687 72.486 C 209.382 72.322,209.185 72.103,209.250 71.998 C 209.315 71.892,209.254 71.806,209.114 71.806 C 208.722 71.806,208.216 71.211,208.216 70.750 C 208.216 70.523,207.946 70.136,207.616 69.890 C 207.286 69.644,206.888 69.316,206.732 69.162 C 206.240 68.675,204.840 68.800,204.840 69.330 C 204.840 69.578,204.731 69.781,204.598 69.781 C 204.299 69.781,203.714 70.348,203.714 70.640 C 203.714 70.758,203.411 71.095,203.041 71.387 C 202.671 71.680,202.367 72.074,202.366 72.263 C 202.364 72.453,202.009 72.942,201.576 73.351 C 201.142 73.760,200.788 74.238,200.788 74.413 C 200.788 74.589,200.687 74.733,200.563 74.733 C 200.439 74.733,200.338 74.891,200.338 75.084 C 200.338 75.277,200.247 75.379,200.137 75.310 C 200.026 75.242,199.872 75.439,199.795 75.747 C 199.717 76.056,199.497 76.308,199.304 76.308 C 198.830 76.308,198.312 76.860,198.312 77.364 C 198.312 77.591,198.041 77.979,197.710 78.225 C 196.830 78.878,196.286 79.502,196.286 79.856 C 196.286 80.170,195.761 80.810,195.504 80.810 C 195.251 80.810,194.285 81.886,194.418 82.019 C 194.491 82.091,194.383 82.214,194.180 82.292 C 193.976 82.370,193.810 82.583,193.810 82.764 C 193.810 83.148,193.275 83.737,192.925 83.737 C 192.793 83.737,192.684 83.895,192.684 84.088 C 192.684 84.281,192.583 84.376,192.459 84.299 C 192.335 84.223,192.234 84.318,192.234 84.511 C 192.234 84.704,192.133 84.862,192.009 84.862 C 191.885 84.862,191.784 85.021,191.784 85.216 C 191.784 85.627,191.256 86.213,190.886 86.213 C 190.746 86.213,190.687 86.301,190.753 86.409 C 190.820 86.518,190.624 86.795,190.317 87.026 C 190.009 87.256,189.758 87.601,189.758 87.792 C 189.758 87.983,189.555 88.285,189.308 88.464 C 189.060 88.642,188.858 88.918,188.858 89.076 C 188.858 89.235,188.749 89.364,188.616 89.364 C 188.215 89.364,187.732 89.977,187.732 90.487 C 187.732 90.751,187.631 90.904,187.507 90.827 C 187.383 90.751,187.282 90.839,187.282 91.023 C 187.282 91.208,187.054 91.391,186.775 91.431 C 186.453 91.476,186.291 91.636,186.329 91.871 C 186.362 92.073,186.236 92.298,186.048 92.370 C 185.860 92.442,185.706 92.713,185.706 92.972 C 185.706 93.231,185.605 93.380,185.481 93.303 C 185.357 93.227,185.254 93.297,185.251 93.459 C 185.249 93.621,184.894 94.056,184.463 94.427 C 184.033 94.797,183.680 95.231,183.680 95.391 C 183.680 95.736,182.222 97.243,181.887 97.243 C 181.759 97.243,181.654 97.455,181.654 97.715 C 181.654 97.975,181.351 98.471,180.979 98.818 C 180.608 99.165,180.304 99.618,180.304 99.825 C 180.304 100.184,179.804 100.844,179.532 100.844 C 179.340 100.844,177.828 102.484,177.828 102.692 C 177.828 102.790,177.719 102.870,177.587 102.870 C 177.245 102.870,176.702 103.455,176.702 103.824 C 176.702 103.996,176.500 104.353,176.252 104.619 C 176.005 104.885,175.802 105.258,175.802 105.449 C 175.802 105.669,175.596 105.796,175.239 105.796 C 174.786 105.796,174.676 105.908,174.676 106.372 C 174.676 106.699,174.579 106.888,174.451 106.809 C 174.328 106.733,174.226 106.782,174.226 106.919 C 174.226 107.197,173.078 108.408,172.875 108.344 C 172.803 108.322,172.728 108.509,172.710 108.761 C 172.691 109.013,172.264 109.622,171.762 110.114 C 171.260 110.606,170.850 111.108,170.850 111.229 C 170.850 111.351,170.748 111.387,170.623 111.310 C 170.498 111.233,170.337 111.354,170.265 111.578 C 169.953 112.548,169.608 113.020,169.122 113.142 C 168.811 113.220,168.664 113.376,168.756 113.530 C 168.841 113.671,168.739 113.648,168.529 113.478 C 168.320 113.308,168.149 112.979,168.149 112.747 C 168.149 112.514,168.047 112.324,167.923 112.324 C 167.800 112.324,167.698 112.141,167.698 111.916 C 167.698 111.692,167.496 111.291,167.248 111.025 C 167.001 110.760,166.798 110.386,166.798 110.195 C 166.798 110.004,166.633 109.848,166.431 109.848 C 166.137 109.848,166.089 109.691,166.192 109.060 C 166.281 108.510,166.234 108.272,166.037 108.272 C 165.671 108.272,164.772 107.240,164.772 106.821 C 164.772 106.643,164.671 106.436,164.547 106.359 C 164.423 106.283,164.322 106.023,164.322 105.783 C 164.322 105.543,164.207 105.346,164.067 105.346 C 163.735 105.346,162.747 104.196,162.746 103.811 C 162.746 103.647,162.593 103.360,162.406 103.173 C 162.220 102.987,162.125 102.740,162.196 102.625 C 162.267 102.510,162.192 102.269,162.029 102.088 C 161.318 101.300,161.171 101.068,161.171 100.741 C 161.171 100.544,160.976 100.394,160.720 100.394 C 160.360 100.394,160.270 100.244,160.270 99.644 C 160.270 99.075,160.135 98.822,159.707 98.593 C 159.398 98.427,159.145 98.112,159.145 97.893 C 159.145 97.674,159.043 97.432,158.920 97.355 C 158.796 97.279,158.694 97.019,158.694 96.779 C 158.694 96.539,158.593 96.342,158.469 96.342 C 158.346 96.342,158.244 96.135,158.244 95.882 C 158.244 95.396,158.231 95.375,157.005 93.991 C 156.572 93.502,156.218 92.920,156.218 92.697 C 156.218 92.473,156.117 92.290,155.993 92.290 C 155.869 92.290,155.768 92.096,155.768 91.859 C 155.768 91.622,155.661 91.392,155.531 91.348 C 155.400 91.305,155.268 91.098,155.237 90.888 C 155.207 90.678,154.959 90.314,154.687 90.078 C 154.415 89.842,154.192 89.537,154.192 89.401 C 154.192 89.264,153.990 88.792,153.742 88.351 C 153.495 87.910,153.292 87.412,153.292 87.243 C 153.292 87.074,153.134 86.875,152.940 86.801 C 152.747 86.727,152.651 86.564,152.728 86.439 C 152.805 86.315,152.711 86.213,152.518 86.213 C 152.324 86.213,152.167 86.080,152.167 85.918 C 152.167 85.755,151.964 85.405,151.716 85.139 C 151.469 84.873,151.266 84.566,151.266 84.456 C 151.266 84.043,150.595 82.936,150.152 82.618 C 149.898 82.436,149.690 82.056,149.690 81.774 C 149.690 81.491,149.589 81.261,149.465 81.261 C 149.342 81.261,149.240 81.058,149.240 80.810 C 149.240 80.563,149.139 80.360,149.015 80.360 C 148.891 80.360,148.790 80.208,148.790 80.023 C 148.790 79.837,148.663 79.710,148.509 79.741 C 148.347 79.774,148.235 79.583,148.245 79.291 C 148.255 79.012,148.172 78.784,148.060 78.784 C 147.734 78.784,147.214 78.172,147.214 77.788 C 147.214 77.593,147.113 77.434,146.989 77.434 C 146.866 77.434,146.764 77.278,146.764 77.088 C 146.764 76.898,146.604 76.498,146.407 76.198 C 146.211 75.898,146.126 75.530,146.219 75.380 C 146.335 75.191,146.271 75.151,146.013 75.250 C 145.738 75.356,145.639 75.270,145.639 74.928 C 145.639 74.673,145.335 74.179,144.963 73.832 C 144.592 73.485,144.288 72.989,144.288 72.729 C 144.288 72.469,144.187 72.257,144.063 72.257 C 143.939 72.257,143.838 72.054,143.838 71.806 C 143.838 71.556,143.688 71.356,143.500 71.356 C 143.288 71.356,143.163 71.142,143.163 70.780 C 143.163 70.453,143.065 70.264,142.938 70.343 C 142.814 70.420,142.712 70.324,142.712 70.131 C 142.712 69.938,142.611 69.781,142.487 69.781 C 142.364 69.781,142.259 69.502,142.255 69.162 C 142.248 68.523,141.773 67.704,141.439 67.752 C 141.334 67.766,141.214 67.606,141.170 67.395 C 141.126 67.184,140.898 66.805,140.663 66.553 C 140.429 66.300,140.236 65.954,140.236 65.783 C 140.236 65.402,139.690 64.828,139.328 64.828 C 139.157 64.828,139.112 64.628,139.204 64.264 C 139.300 63.882,139.257 63.718,139.073 63.758 C 138.923 63.789,138.757 63.614,138.704 63.368 C 138.651 63.123,138.417 62.756,138.184 62.554 C 137.951 62.352,137.760 62.034,137.760 61.847 C 137.760 61.660,137.604 61.377,137.412 61.218 C 137.221 61.059,137.112 60.807,137.169 60.656 C 137.227 60.506,137.029 60.252,136.729 60.092 C 136.344 59.885,136.185 59.608,136.185 59.143 C 136.185 58.752,135.998 58.333,135.724 58.111 C 135.471 57.906,135.247 57.510,135.226 57.231 C 135.205 56.953,135.052 56.725,134.885 56.725 C 134.719 56.725,134.645 56.624,134.721 56.500 C 134.798 56.376,134.703 56.275,134.510 56.275 C 134.309 56.275,134.159 56.082,134.159 55.824 C 134.159 55.577,134.057 55.374,133.934 55.374 C 133.810 55.374,133.708 55.121,133.708 54.811 C 133.708 54.502,133.607 54.249,133.483 54.249 C 133.360 54.249,133.258 54.046,133.258 53.799 C 133.258 53.551,133.157 53.348,133.033 53.348 C 132.909 53.348,132.808 53.186,132.808 52.987 C 132.808 52.752,132.685 52.672,132.459 52.759 C 132.257 52.836,132.168 52.798,132.248 52.669 C 132.324 52.546,132.228 52.384,132.035 52.310 C 131.841 52.235,131.683 51.983,131.683 51.749 C 131.683 51.514,131.581 51.322,131.458 51.322 C 131.334 51.322,131.232 51.063,131.232 50.746 C 131.232 50.420,131.135 50.231,131.007 50.310 C 130.880 50.388,130.782 50.199,130.782 49.873 C 130.782 49.556,130.692 49.297,130.582 49.297 C 130.471 49.297,130.316 49.039,130.237 48.725 C 130.158 48.410,129.995 48.213,129.875 48.288 C 129.755 48.362,129.657 48.265,129.657 48.072 C 129.657 47.879,129.555 47.721,129.432 47.721 C 129.308 47.721,129.207 47.541,129.207 47.320 C 129.207 47.100,129.004 46.774,128.756 46.595 C 128.509 46.417,128.306 46.083,128.306 45.854 C 128.306 45.625,128.153 45.285,127.966 45.098 C 127.780 44.911,127.684 44.665,127.755 44.551 C 127.825 44.438,127.725 44.344,127.532 44.344 C 127.339 44.344,127.181 44.161,127.181 43.937 C 127.181 43.712,126.978 43.311,126.730 43.046 C 126.483 42.780,126.280 42.406,126.280 42.215 C 126.280 42.024,126.179 41.868,126.055 41.868 C 125.931 41.868,125.830 41.716,125.830 41.531 C 125.830 41.345,125.709 41.218,125.562 41.249 C 125.415 41.280,125.251 41.104,125.198 40.859 C 125.145 40.613,124.911 40.246,124.678 40.044 C 124.445 39.842,124.254 39.418,124.254 39.101 C 124.254 38.754,124.030 38.348,123.692 38.082 C 123.382 37.838,123.129 37.448,123.129 37.215 C 123.129 36.981,122.926 36.644,122.679 36.466 C 122.431 36.287,122.228 35.970,122.228 35.760 C 122.228 35.550,122.123 35.343,121.993 35.300 C 121.864 35.257,121.741 34.995,121.720 34.718 C 121.700 34.441,121.603 34.215,121.505 34.215 C 121.408 34.215,121.328 34.077,121.328 33.909 C 121.328 33.740,121.075 33.413,120.765 33.180 C 120.456 32.948,120.203 32.598,120.203 32.403 C 120.203 32.208,120.000 31.831,119.752 31.566 C 119.505 31.300,119.302 30.876,119.302 30.623 C 119.302 30.370,119.201 30.163,119.077 30.163 C 118.953 30.163,118.852 29.961,118.852 29.713 C 118.852 29.465,118.728 29.288,118.576 29.319 C 118.424 29.350,118.265 29.147,118.223 28.869 C 118.180 28.590,118.051 28.362,117.936 28.362 C 117.821 28.362,117.727 28.204,117.727 28.011 C 117.727 27.818,117.625 27.723,117.501 27.800 C 117.378 27.876,117.273 27.756,117.269 27.532 C 117.260 27.034,116.757 26.337,116.407 26.337 C 116.266 26.337,116.151 26.083,116.151 25.774 C 116.151 25.464,116.075 25.210,115.982 25.209 C 115.789 25.207,115.250 24.125,115.250 23.738 C 115.250 23.368,114.494 22.735,114.051 22.735 C 113.844 22.735,113.700 22.862,113.731 23.016 " stroke="none" fill="#7cb4d4" fill-rule="evenodd"></path><path id="path1" d="M111.706 27.575 C 111.708 28.070,111.754 28.246,111.808 27.966 C 111.862 27.686,111.860 27.281,111.804 27.065 C 111.747 26.850,111.703 27.079,111.706 27.575 M96.181 125.718 C 96.183 126.337,96.227 126.563,96.279 126.221 C 96.330 125.879,96.329 125.372,96.276 125.095 C 96.222 124.819,96.180 125.098,96.181 125.718 M185.763 167.854 C 185.979 167.910,186.334 167.910,186.550 167.854 C 186.767 167.797,186.590 167.751,186.156 167.751 C 185.723 167.751,185.546 167.797,185.763 167.854 M199.719 172.356 C 199.935 172.412,200.290 172.412,200.506 172.356 C 200.723 172.299,200.546 172.253,200.113 172.253 C 199.679 172.253,199.502 172.299,199.719 172.356 " stroke="none" fill="#80b4d4" fill-rule="evenodd"></path><path id="path2" d="M111.706 27.575 C 111.708 28.070,111.754 28.246,111.808 27.966 C 111.862 27.686,111.860 27.281,111.804 27.065 C 111.747 26.850,111.703 27.079,111.706 27.575 M96.181 125.718 C 96.183 126.337,96.227 126.563,96.279 126.221 C 96.330 125.879,96.329 125.372,96.276 125.095 C 96.222 124.819,96.180 125.098,96.181 125.718 M185.763 167.854 C 185.979 167.910,186.334 167.910,186.550 167.854 C 186.767 167.797,186.590 167.751,186.156 167.751 C 185.723 167.751,185.546 167.797,185.763 167.854 M199.719 172.356 C 199.935 172.412,200.290 172.412,200.506 172.356 C 200.723 172.299,200.546 172.253,200.113 172.253 C 199.679 172.253,199.502 172.299,199.719 172.356 " stroke="none" fill="#80b4d4" fill-rule="evenodd"></path><path id="path3" d="M111.706 27.575 C 111.708 28.070,111.754 28.246,111.808 27.966 C 111.862 27.686,111.860 27.281,111.804 27.065 C 111.747 26.850,111.703 27.079,111.706 27.575 M96.181 125.718 C 96.183 126.337,96.227 126.563,96.279 126.221 C 96.330 125.879,96.329 125.372,96.276 125.095 C 96.222 124.819,96.180 125.098,96.181 125.718 M185.763 167.854 C 185.979 167.910,186.334 167.910,186.550 167.854 C 186.767 167.797,186.590 167.751,186.156 167.751 C 185.723 167.751,185.546 167.797,185.763 167.854 M199.719 172.356 C 199.935 172.412,200.290 172.412,200.506 172.356 C 200.723 172.299,200.546 172.253,200.113 172.253 C 199.679 172.253,199.502 172.299,199.719 172.356 " stroke="none" fill="#80b4d4" fill-rule="evenodd"></path><path id="path4" d="M111.706 27.575 C 111.708 28.070,111.754 28.246,111.808 27.966 C 111.862 27.686,111.860 27.281,111.804 27.065 C 111.747 26.850,111.703 27.079,111.706 27.575 M96.181 125.718 C 96.183 126.337,96.227 126.563,96.279 126.221 C 96.330 125.879,96.329 125.372,96.276 125.095 C 96.222 124.819,96.180 125.098,96.181 125.718 M185.763 167.854 C 185.979 167.910,186.334 167.910,186.550 167.854 C 186.767 167.797,186.590 167.751,186.156 167.751 C 185.723 167.751,185.546 167.797,185.763 167.854 M199.719 172.356 C 199.935 172.412,200.290 172.412,200.506 172.356 C 200.723 172.299,200.546 172.253,200.113 172.253 C 199.679 172.253,199.502 172.299,199.719 172.356 " stroke="none" fill="#80b4d4" fill-rule="evenodd"></path></g></svg>